<?xml version="1.0" encoding="utf-8"?>
<!-- Generator: Adobe Illustrator 19.1.0, SVG Export Plug-In . SVG Version: 6.00 Build 0)  -->
<!DOCTYPE svg PUBLIC "-//W3C//DTD SVG 1.1//EN" "http://www.w3.org/Graphics/SVG/1.1/DTD/svg11.dtd">
<svg version="1.1" id="_x37_688duo" xmlns="http://www.w3.org/2000/svg" xmlns:xlink="http://www.w3.org/1999/xlink" x="0px"
	 y="0px" width="175.8px" height="73.7px" viewBox="0 0 175.8 73.7" enable-background="new 0 0 175.8 73.7" xml:space="preserve">
<g>
	<path fill="#44AF35" d="M162.8,73.7H3.4V0h172.3v60.7C170.7,65.8,167.8,68.6,162.8,73.7z"/>
	<g>
		<g>
			<g>
				<g>
					<g>
						<path fill="#D1D3D4" d="M15.9,5H1.8L0.1,4.1c0,0,0,0,0,0c0,0,0,0,0,0c0,0,0,0,0,0c0,0,0,0,0,0c0,0,0,0,0,0c0,0,0,0,0,0l0.3,2
							v18.4L0,26.9c0,0,0,0,0,0c0,0,0,0,0,0c0,0,0,0,0,0c0,0,0,0,0,0c0,0,0,0,0,0c0,0,0,0,0,0l1.7-0.8h14.2c0,0,0.1,0,0.1-0.1
							L15.9,5C16,5,16,5,15.9,5z"/>
						<g>
							<rect x="0.5" y="6.2" fill="#B3B3B3" width="0.6" height="18.4"/>
							<rect x="0.3" y="6.2" fill="#F1F2F2" width="0.3" height="18.4"/>
						</g>
					</g>
					<g>
						<rect x="2.5" y="8.8" fill="#4D4D4D" width="5.7" height="1.8"/>
						<rect x="2.5" y="20.5" fill="#4D4D4D" width="5.7" height="1.8"/>
					</g>
					<g>
						<rect x="13.7" y="9.5" fill="#A7A9AC" width="2.3" height="2.3"/>
						<rect x="13.7" y="19.3" fill="#A7A9AC" width="2.3" height="2.3"/>
					</g>
					<g>
						<rect x="16" y="11.8" fill="#F1F2F2" width="2.3" height="0.9"/>
						<rect x="16" y="18.4" fill="#F1F2F2" width="2.3" height="0.9"/>
						<rect x="16" y="16.2" fill="#F1F2F2" width="2.3" height="0.9"/>
						<rect x="16" y="14" fill="#F1F2F2" width="2.3" height="0.9"/>
					</g>
				</g>
				<g>
					<path fill="#F1F2F2" d="M1.8,26.1h14.2c0,0,0.1,0,0.1-0.1v-0.7H1.8V26.1z"/>
					<path fill="#F1F2F2" d="M1.8,5v0.8H16V5C16,5,16,5,15.9,5H1.8z"/>
				</g>
			</g>
			<g>
				<g>
					<g>
						<path fill="#D1D3D4" d="M15.9,47.5H1.8l-1.7-0.8c0,0,0,0,0,0c0,0,0,0,0,0c0,0,0,0,0,0c0,0,0,0,0,0c0,0,0,0,0,0c0,0,0,0,0,0
							l0.3,2v18.4L0,69.3c0,0,0,0,0,0c0,0,0,0,0,0c0,0,0,0,0,0c0,0,0,0,0,0c0,0,0,0,0,0c0,0,0,0,0,0l1.7-0.8h14.2c0,0,0.1,0,0.1-0.1
							L15.9,47.5C16,47.5,16,47.5,15.9,47.5z"/>
						<g>
							<rect x="0.5" y="48.6" fill="#B3B3B3" width="0.6" height="18.4"/>
							<rect x="0.3" y="48.6" fill="#F1F2F2" width="0.3" height="18.4"/>
						</g>
					</g>
					<g>
						<rect x="2.5" y="51.3" fill="#4D4D4D" width="5.7" height="1.8"/>
						<rect x="2.5" y="63" fill="#4D4D4D" width="5.7" height="1.8"/>
					</g>
					<g>
						<rect x="13.7" y="52" fill="#A7A9AC" width="2.3" height="2.3"/>
						<rect x="13.7" y="61.8" fill="#A7A9AC" width="2.3" height="2.3"/>
					</g>
					<g>
						<rect x="16" y="54.3" fill="#F1F2F2" width="2.3" height="0.9"/>
						<rect x="16" y="60.9" fill="#F1F2F2" width="2.3" height="0.9"/>
						<rect x="16" y="58.7" fill="#F1F2F2" width="2.3" height="0.9"/>
						<rect x="16" y="56.5" fill="#F1F2F2" width="2.3" height="0.9"/>
					</g>
				</g>
				<g>
					<path fill="#F1F2F2" d="M1.8,68.6h14.2c0,0,0.1,0,0.1-0.1v-0.7H1.8V68.6z"/>
					<path fill="#F1F2F2" d="M1.8,47.5v0.8H16v-0.7c0,0,0-0.1-0.1-0.1H1.8z"/>
				</g>
			</g>
			<g>
				<rect x="5.5" y="30.9" fill="#CCCCCC" width="6.2" height="2.9"/>
				<rect x="5.9" y="31.3" fill="#F1F2F2" width="5.4" height="2.2"/>
				<rect x="7.3" y="31.3" fill="#F7E8AD" width="2.6" height="2.2"/>
			</g>
			<g>
				<rect x="5.5" y="39.8" fill="#CCCCCC" width="6.2" height="2.9"/>
				<rect x="5.9" y="40.2" fill="#F1F2F2" width="5.4" height="2.2"/>
				<rect x="7.3" y="40.2" fill="#F7E8AD" width="2.6" height="2.2"/>
			</g>
			<g>
				<g>
					<text transform="matrix(1 0 0 1 6.6388 36.3098)" fill="#FFFFFF" font-family="'OCRA'" font-size="2.72px">ON</text>
				</g>
				<g>
					<text transform="matrix(1 0 0 1 4.6941 39.3684)" fill="#FFFFFF" font-family="'OCRA'" font-size="2.72px">WiFi</text>
				</g>
			</g>
			<g>
				<text transform="matrix(0 1 -1 0 18.5446 8.562)"><tspan x="0" y="0" fill="#FFFFFF" font-family="'OCRA'" font-size="2.72px">USB</tspan><tspan x="5.8" y="0" fill="#FFFFFF" font-family="'OCRA'" font-size="2.72px" letter-spacing="-1"> </tspan><tspan x="6.4" y="0" fill="#FFFFFF" font-family="'OCRA'" font-size="2.72px">HOST</tspan></text>
			</g>
			<g>
				<text transform="matrix(0 1 -1 0 18.5446 51.2093)" fill="#FFFFFF" font-family="'OCRA'" font-size="2.72px">PWR/MCU</text>
			</g>
			<g>
				<g>
					<text transform="matrix(0 1 -1 0 30.6355 14.8597)" fill="#FFFFFF" font-family="'OCRA'" font-size="2.72px">MPU</text>
				</g>
				<g>
					<g id="breadboard_4_">
						<g>
							<g>
								<g>
									<polygon fill="#A7A9AC" points="28.7,23.9 28.7,19.6 29.8,19.6 29.8,23.9 									"/>
									<polygon fill="#A7A9AC" points="21.3,15.9 21.3,11.7 22.5,11.7 22.5,15.9 									"/>
									<polygon fill="#A7A9AC" points="28.7,15.9 28.7,11.7 29.8,11.7 29.8,15.9 									"/>
									<polygon fill="#A7A9AC" points="21.3,23.9 21.3,19.6 22.5,19.6 22.5,23.9 									"/>
								</g>
								<g>
									<rect x="21" y="13.2" fill="#BCBEC0" width="9.1" height="9.1"/>
									<path fill="#D1D3D4" d="M29.4,22.3h-7.6c-0.4,0-0.7-0.3-0.7-0.7V14c0-0.4,0.3-0.7,0.7-0.7h7.6c0.4,0,0.7,0.3,0.7,0.7v7.6
										C30.1,22,29.8,22.3,29.4,22.3z"/>
									<path fill="none" stroke="#939598" stroke-width="0.2" stroke-miterlimit="10" d="M29.1,21.5h-7c-0.1,0-0.2-0.1-0.2-0.2v-7
										c0-0.1,0.1-0.2,0.2-0.2h7c0.1,0,0.2,0.1,0.2,0.2v7C29.3,21.4,29.2,21.5,29.1,21.5z"/>
								</g>
								<g>
									<circle fill="#F9E0B2" cx="25.6" cy="17.8" r="2.6"/>
									<circle opacity="0.12" enable-background="new    " cx="25.6" cy="17.9" r="2.3"/>
									<circle fill="#FFEDCA" cx="25.6" cy="17.8" r="2.3"/>
									<path opacity="0.6" fill="#FFFFFF" enable-background="new    " d="M26.4,15.7c-0.2-0.1-0.4-0.1-0.6-0.1
										c-0.5-0.1-1,0.1-1.4,0.3l0,0.1c0.4-0.2,1-0.3,1.5-0.3C26.1,15.7,26.3,15.7,26.4,15.7L26.4,15.7z"/>
								</g>
							</g>
						</g>
					</g>
				</g>
			</g>
			<g>
				<g>
					<text transform="matrix(0 1 -1 0 30.6228 32.9691)" fill="#FFFFFF" font-family="'OCRA'" font-size="2.72px">WiFi</text>
				</g>
				<g>
					<g id="breadboard_2_">
						<g>
							<g>
								<g>
									<polygon fill="#A7A9AC" points="28.7,43 28.7,38.7 29.8,38.7 29.8,43 									"/>
									<polygon fill="#A7A9AC" points="21.3,35 21.3,30.8 22.5,30.8 22.5,35 									"/>
									<polygon fill="#A7A9AC" points="28.7,35 28.7,30.8 29.8,30.8 29.8,35 									"/>
									<polygon fill="#A7A9AC" points="21.3,43 21.3,38.7 22.5,38.7 22.5,43 									"/>
								</g>
								<g>
									<rect x="21" y="32.3" fill="#BCBEC0" width="9.1" height="9.1"/>
									<path fill="#D1D3D4" d="M29.4,41.4h-7.6c-0.4,0-0.7-0.3-0.7-0.7v-7.6c0-0.4,0.3-0.7,0.7-0.7h7.6c0.4,0,0.7,0.3,0.7,0.7v7.6
										C30.1,41.1,29.8,41.4,29.4,41.4z"/>
									<path fill="none" stroke="#939598" stroke-width="0.2" stroke-miterlimit="10" d="M29.1,40.6h-7c-0.1,0-0.2-0.1-0.2-0.2v-7
										c0-0.1,0.1-0.2,0.2-0.2h7c0.1,0,0.2,0.1,0.2,0.2v7C29.3,40.5,29.2,40.6,29.1,40.6z"/>
								</g>
								<g>
									<circle fill="#F9E0B2" cx="25.6" cy="36.9" r="2.6"/>
									<circle opacity="0.12" enable-background="new    " cx="25.6" cy="37" r="2.3"/>
									<circle fill="#FFEDCA" cx="25.6" cy="36.9" r="2.3"/>
									<path opacity="0.6" fill="#FFFFFF" enable-background="new    " d="M26.4,34.8c-0.2-0.1-0.4-0.1-0.6-0.1
										c-0.5-0.1-1,0.1-1.4,0.3l0,0.1c0.4-0.2,1-0.3,1.5-0.3C26.1,34.8,26.3,34.8,26.4,34.8L26.4,34.8z"/>
								</g>
							</g>
						</g>
					</g>
				</g>
			</g>
			<g>
				<g>
					<text transform="matrix(0 1 -1 0 30.6228 53.023)" fill="#FFFFFF" font-family="'OCRA'" font-size="2.72px">MCU</text>
				</g>
				<g>
					<g id="breadboard_1_">
						<g>
							<g>
								<g>
									<polygon fill="#A7A9AC" points="28.7,62 28.7,57.8 29.8,57.8 29.8,62 									"/>
									<polygon fill="#A7A9AC" points="21.3,54.1 21.3,49.8 22.5,49.8 22.5,54.1 									"/>
									<polygon fill="#A7A9AC" points="28.7,54.1 28.7,49.8 29.8,49.8 29.8,54.1 									"/>
									<polygon fill="#A7A9AC" points="21.3,62 21.3,57.8 22.5,57.8 22.5,62 									"/>
								</g>
								<g>
									<rect x="21" y="51.4" fill="#BCBEC0" width="9.1" height="9.1"/>
									<path fill="#D1D3D4" d="M29.4,60.5h-7.6c-0.4,0-0.7-0.3-0.7-0.7v-7.6c0-0.4,0.3-0.7,0.7-0.7h7.6c0.4,0,0.7,0.3,0.7,0.7v7.6
										C30.1,60.1,29.8,60.5,29.4,60.5z"/>
									<path fill="none" stroke="#939598" stroke-width="0.2" stroke-miterlimit="10" d="M29.1,59.7h-7c-0.1,0-0.2-0.1-0.2-0.2v-7
										c0-0.1,0.1-0.2,0.2-0.2h7c0.1,0,0.2,0.1,0.2,0.2v7C29.3,59.6,29.2,59.7,29.1,59.7z"/>
								</g>
								<g>
									<circle fill="#F9E0B2" cx="25.6" cy="55.9" r="2.6"/>
									<circle opacity="0.12" enable-background="new    " cx="25.6" cy="56.1" r="2.3"/>
									<circle fill="#FFEDCA" cx="25.6" cy="56" r="2.3"/>
									<path opacity="0.6" fill="#FFFFFF" enable-background="new    " d="M26.4,53.8c-0.2-0.1-0.4-0.1-0.6-0.1
										c-0.5-0.1-1,0.1-1.4,0.3l0,0.1c0.4-0.2,1-0.3,1.5-0.3C26.1,53.8,26.3,53.9,26.4,53.8L26.4,53.8z"/>
								</g>
							</g>
						</g>
					</g>
				</g>
			</g>
			<g>
				<rect x="55.5" y="8.6" fill="#BCBEC0" width="107" height="56.5"/>
				<g>
					<polygon fill="#808080" points="161.5,9.6 161.5,9.6 161.5,64.1 161.5,64.1 162.5,65.1 162.5,8.6 					"/>
					<polygon fill="#CCCCCC" points="56.5,9.6 56.5,9.6 56.5,64.1 56.5,64.1 55.5,65.1 55.5,8.6 					"/>
					<g>
						<polygon fill="#CCCCCC" points="161.1,8.6 55.5,8.6 56.5,9.6 161.1,9.6 161.5,9.6 161.5,9.6 161.5,9.6 162.5,8.6 						"/>
					</g>
					<g>
						<polygon fill="#999999" points="161.1,65.1 55.5,65.1 56.5,64.1 161.1,64.1 161.5,64.1 161.5,64.1 161.5,64.1 162.5,65.1 
													"/>
					</g>
				</g>
				<g>
					<g>
						<g>
							<path fill="#FFFFFF" d="M60.9,23.9v-8h1.4v6.7H66v1.3H60.9z"/>
							<path fill="#FFFFFF" d="M67.5,17.1c-0.6,0-0.8-0.3-0.8-0.7c0-0.4,0.2-0.7,0.8-0.7c0.6,0,0.8,0.3,0.8,0.7
								C68.3,16.8,68.1,17.1,67.5,17.1z M66.8,23.9v-6h1.4v6H66.8z"/>
							<path fill="#FFFFFF" d="M73.4,23.9v-3.6c0-0.9-0.4-1.3-1.1-1.3c-0.7,0-1.3,0.5-1.6,0.8v4.1h-1.4v-6h1.1l0.1,0.8
								c0.4-0.5,1.1-0.9,2.1-0.9c1.3,0,2.1,0.8,2.1,2.2v3.9H73.4z"/>
							<path fill="#FFFFFF" d="M79.7,23.9c0-0.1-1.4-2.4-1.4-2.4h-0.9v2.4h-1.4v-8.3h1.4v4.8c0.3,0,0.7-0.1,1-0.2
								c0.3-0.3,1.3-2.3,1.3-2.3H81c-0.2,0.5-1,2.4-1.6,3l1.7,2.9H79.7z"/>
							<path fill="#FFFFFF" d="M81.9,23.9v-8h1.4v8H81.9z"/>
							<path fill="#FFFFFF" d="M88.1,23.8c-0.4,0.2-0.9,0.3-1.4,0.3c-0.9,0-1.8-0.4-1.8-1.8V19h-0.8v-1.1h0.8l0.2-1.4h1.2v1.4H88
								L87.9,19h-1.7v3c0,0.6,0.4,0.7,0.9,0.7c0.3,0,0.6-0.1,0.9-0.2L88.1,23.8z"/>
						</g>
						<g>
							<path fill="#FFFFFF" d="M89.9,19.1v-2.6h-1V16h2.5v0.5h-1v2.6H89.9z"/>
							<path fill="#FFFFFF" d="M94.3,19.1l-0.1-1.9l0-0.5L94,17.3l-0.6,1.1H93l-0.6-1.1l-0.2-0.5l0,0.5l-0.1,1.9h-0.5l0.2-3.1h0.6
								l0.8,1.5l0.1,0.3l0.1-0.3l0.8-1.5h0.6l0.2,3.1H94.3z"/>
						</g>
						<g>
							<path fill="#FFFFFF" d="M98.5,22.1c0.2,0.1,1.4,0.4,2.6,0.4c1,0,1.8-0.3,1.8-1.1c0-1.6-4.5-0.8-4.5-3.6
								c0-1.5,1.2-2.3,3.2-2.3c1.2,0,2.3,0.3,2.4,0.4l-0.1,1.3c-0.4-0.2-1.5-0.4-2.3-0.4c-1,0-1.8,0.3-1.8,1c0,1.5,4.5,0.7,4.5,3.6
								c0,1.6-1.2,2.4-3.2,2.4c-1.5,0-2.7-0.4-2.7-0.4L98.5,22.1z"/>
							<path fill="#FFFFFF" d="M112.8,23.7V20c0-0.8-0.5-1.2-1-1.2c-0.7,0-1.2,0.4-1.4,0.8v4.1H109V20c0-0.8-0.4-1.2-1-1.2
								c-0.7,0-1.2,0.5-1.4,0.8v4.1h-1.4v-6h1.1l0.1,0.8c0.4-0.5,1-0.9,2-0.9c0.8,0,1.4,0.3,1.7,1c0.4-0.5,1-1,2.1-1
								c1.1,0,2,0.7,2,2.1v4H112.8z"/>
							<path fill="#FFFFFF" d="M119.2,23.7l-0.1-0.7c-0.5,0.6-1.2,0.9-2,0.9c-1.1,0-2-0.5-2-1.7c0-1.3,1.3-1.8,2.7-1.8
								c0.4,0,0.8,0,1.1,0.1v-0.7c0-0.7-0.5-1-1.5-1c-0.7,0-1.3,0.1-1.8,0.4l-0.1-1.1c0.4-0.1,1.1-0.4,2.2-0.4
								c1.4,0,2.6,0.4,2.6,2.1v4H119.2z M118.9,21.3c-0.2,0-0.6-0.1-1-0.1c-0.8,0-1.5,0.2-1.5,0.9c0,0.6,0.6,0.7,1,0.7
								c0.8,0,1.2-0.4,1.5-0.6V21.3z"/>
							<path fill="#FFFFFF" d="M121.4,23.7v-6h1l0.2,0.9c0.5-0.6,1.2-1,2.2-1l-0.1,1.2c-0.7,0-1.4,0.3-1.9,0.8v4H121.4z"/>
							<path fill="#FFFFFF" d="M129.1,23.6c-0.4,0.2-0.9,0.3-1.4,0.3c-0.9,0-1.8-0.4-1.8-1.8v-3.2h-0.8v-1.1h0.8l0.2-1.4h1.2v1.4
								h1.7l-0.1,1.1h-1.7v3c0,0.6,0.4,0.7,0.9,0.7c0.3,0,0.6-0.1,0.9-0.2L129.1,23.6z"/>
							<path fill="#FFFFFF" d="M132.3,23.7l2.5-6l0.4-0.8l-0.9,0.1h-2.7v-1.3h5.2l0.1,1l-2.9,7H132.3z"/>
							<path fill="#FFFFFF" d="M142.6,17c-0.6-0.2-1.1-0.2-1.5-0.2c-1.5,0-2.1,0.9-2.2,2.4c0.5-0.3,1.1-0.5,1.9-0.5
								c1.7,0,2.4,1,2.4,2.4c0,1.6-1,2.7-2.9,2.7c-2.4,0-2.9-1.8-2.9-3.8c0-3,1.1-4.5,3.4-4.5c0.5,0,1.1,0.1,1.7,0.2L142.6,17z
								 M140.4,22.7c0.7,0,1.4-0.4,1.4-1.6c0-1-0.6-1.4-1.3-1.4c-0.6,0-1.2,0.2-1.6,0.5C139,21.8,139.3,22.7,140.4,22.7z"/>
							<path fill="#FFFFFF" d="M150.1,21.6c0,1.5-1.2,2.3-3,2.3c-2,0-3-0.8-3-2.2c0-1.1,0.7-1.7,1.5-2c-0.7-0.4-1.3-0.9-1.3-1.9
								c0-1.4,1-2.1,2.8-2.1c1.9,0,2.9,0.8,2.9,2c0,1-0.7,1.7-1.3,2C149.5,19.9,150.1,20.5,150.1,21.6z M145.5,21.6
								c0,0.7,0.7,1.1,1.6,1.1c0.9,0,1.6-0.4,1.6-1.2c0-0.9-0.8-1.1-1.8-1.4C146.1,20.4,145.5,20.8,145.5,21.6z M148.6,17.8
								c0-0.7-0.7-1.1-1.5-1.1c-0.8,0-1.5,0.3-1.5,1.1c0,0.9,0.8,1.1,1.7,1.4C148.1,18.8,148.6,18.4,148.6,17.8z"/>
							<path fill="#FFFFFF" d="M157,21.6c0,1.5-1.2,2.3-3,2.3c-2,0-3-0.8-3-2.2c0-1.1,0.7-1.7,1.5-2c-0.7-0.4-1.3-0.9-1.3-1.9
								c0-1.4,1-2.1,2.8-2.1c1.9,0,2.9,0.8,2.9,2c0,1-0.7,1.7-1.3,2C156.3,19.9,157,20.5,157,21.6z M152.3,21.6
								c0,0.7,0.7,1.1,1.6,1.1c0.9,0,1.6-0.4,1.6-1.2c0-0.9-0.8-1.1-1.8-1.4C153,20.4,152.3,20.8,152.3,21.6z M155.4,17.8
								c0-0.7-0.7-1.1-1.5-1.1c-0.8,0-1.5,0.3-1.5,1.1c0,0.9,0.8,1.1,1.7,1.4C154.9,18.8,155.4,18.4,155.4,17.8z"/>
							<path fill="#FFFFFF" d="M137.3,27.1h2.9c2.9,0,3.9,1.8,3.9,4c0,2.2-1,4-3.9,4h-2.9V27.1z M140.3,33.9c1.7,0,2.3-1.2,2.3-2.8
								c0-1.6-0.6-2.8-2.3-2.8h-1.5v5.6H140.3z"/>
							<path fill="#FFFFFF" d="M149.3,35.1l-0.1-0.8c-0.4,0.5-1.1,0.9-2.1,0.9c-1.3,0-2.1-0.8-2.1-2.2v-3.9h1.4v3.6
								c0,0.9,0.4,1.3,1.1,1.3c0.7,0,1.3-0.4,1.6-0.8v-4.1h1.4v6H149.3z"/>
							<path fill="#FFFFFF" d="M151.2,32.1c0-1.9,1-3.1,2.9-3.1s2.9,1.2,2.9,3.1c0,2-1,3.1-2.9,3.1S151.2,34.1,151.2,32.1z
								 M155.7,32.2c0-1.4-0.6-1.9-1.6-1.9c-1,0-1.6,0.6-1.6,1.9c0,1.4,0.6,1.9,1.6,1.9C155.1,34.1,155.7,33.5,155.7,32.2z"/>
						</g>
					</g>
					<g>
						<g>
							<g>
								<g>
									<polygon fill="#FFFFFF" points="80.4,46.9 80.4,53 84.4,53 84.4,52 81.5,52 81.5,46.9 									"/>
									<path fill="#FFFFFF" d="M85.5,47.8c-0.5,0-0.6-0.2-0.6-0.6c0-0.3,0.2-0.6,0.6-0.6c0.4,0,0.6,0.2,0.6,0.6
										C86.1,47.5,85.9,47.8,85.5,47.8 M85,48.4h1V53h-1V48.4z"/>
									<path fill="#FFFFFF" d="M89.9,53v-2.8c0-0.7-0.3-1-0.8-1c-0.6,0-1,0.3-1.2,0.6V53h-1v-4.6h0.8l0.1,0.6
										c0.3-0.4,0.9-0.7,1.6-0.7c1,0,1.6,0.6,1.6,1.7V53H89.9z"/>
									<path fill="#FFFFFF" d="M94.5,53c0-0.1-1.1-1.8-1.1-1.8h-0.7V53h-1v-6.3h1v3.7c0.2,0,0.6-0.1,0.8-0.1c0.3-0.2,1-1.8,1-1.8
										h1.1c-0.1,0.3-0.8,1.8-1.2,2.3l1.3,2.3H94.5z"/>
									<polygon fill="#FFFFFF" points="97,53 97,46.7 98.1,46.7 98.1,51.9 98.1,53 									"/>
									<path fill="#FFFFFF" d="M101.7,52.9c-0.3,0.1-0.7,0.2-1.1,0.2c-0.7,0-1.4-0.3-1.4-1.4v-2.4h-0.6v-0.8h0.6l0.1-1.1h0.9v1.1
										h1.3l0,0.8h-1.3v2.3c0,0.5,0.3,0.6,0.7,0.6c0.2,0,0.5-0.1,0.7-0.2L101.7,52.9z"/>
									<path fill="#FFFFFF" d="M81.4,55.4h0.3v0.7l0,0.2c0.1-0.1,0.3-0.3,0.6-0.3c0.5,0,0.8,0.3,0.8,1c0,0.6-0.3,1-1,1
										c-0.3,0-0.6-0.1-0.7-0.1V55.4z M81.6,57.8c0.1,0,0.3,0,0.4,0c0.5,0,0.7-0.2,0.7-0.8c0-0.5-0.2-0.7-0.5-0.7
										c-0.3,0-0.5,0.2-0.6,0.3V57.8z"/>
									<path fill="#FFFFFF" d="M83.2,58.5c0.1,0,0.2,0,0.2,0c0.2,0,0.4-0.3,0.5-0.5l-0.7-1.9h0.3l0.4,1.3l0.1,0.3l0.6-1.6h0.3
										L84.2,58c-0.2,0.5-0.3,0.7-0.7,0.7c-0.1,0-0.2,0-0.3,0L83.2,58.5z"/>
									<polygon fill="#FFFFFF" points="88.1,58 88,56.5 88,56.1 87.8,56.5 87.4,57.4 87,57.4 86.6,56.5 86.4,56.1 86.4,56.5 
										86.3,58 85.9,58 86,55.5 86.5,55.5 87.1,56.7 87.2,56.9 87.3,56.7 87.9,55.5 88.4,55.5 88.5,58 									"/>
									<path fill="#FFFFFF" d="M90.5,57.9C90.3,58,90.1,58,89.8,58c-0.6,0-1-0.4-1-1c0-0.6,0.3-1,0.9-1c0.6,0,0.8,0.4,0.8,0.8
										c0,0.1,0,0.2,0,0.3h-1.2c0,0.4,0.2,0.5,0.6,0.5c0.3,0,0.6-0.1,0.7-0.1L90.5,57.9z M90.1,56.8c0-0.3-0.1-0.4-0.4-0.4
										c-0.3,0-0.4,0.2-0.4,0.5L90.1,56.8L90.1,56.8z"/>
									<path fill="#FFFFFF" d="M92.3,58l0-0.2c-0.1,0.1-0.3,0.3-0.6,0.3c-0.5,0-0.7-0.3-0.7-1c0-0.6,0.3-1,0.9-1
										c0.2,0,0.3,0,0.4,0.1l0-0.2v-0.6h0.4V58H92.3z M92.2,56.5c-0.1,0-0.2,0-0.3,0c-0.3,0-0.5,0.2-0.5,0.6
										c0,0.4,0.1,0.6,0.4,0.6c0.2,0,0.4-0.2,0.5-0.3V56.5z"/>
									<path fill="#FFFFFF" d="M93.3,55.8c-0.2,0-0.3-0.1-0.3-0.2c0-0.1,0.1-0.2,0.3-0.2c0.2,0,0.2,0.1,0.2,0.2
										C93.5,55.7,93.4,55.8,93.3,55.8 M93.1,56.1h0.4V58h-0.4V56.1z"/>
									<path fill="#FFFFFF" d="M95.1,58l0-0.2c-0.2,0.2-0.4,0.3-0.6,0.3c-0.3,0-0.6-0.2-0.6-0.5c0-0.4,0.4-0.6,0.8-0.6
										c0.1,0,0.2,0,0.4,0v-0.2c0-0.2-0.2-0.3-0.5-0.3c-0.2,0-0.4,0-0.6,0.1l0-0.4c0.1,0,0.3-0.1,0.7-0.1c0.4,0,0.8,0.1,0.8,0.7
										V58H95.1z M95,57.2c-0.1,0-0.2,0-0.3,0c-0.2,0-0.5,0.1-0.5,0.3c0,0.2,0.2,0.2,0.3,0.2c0.2,0,0.4-0.1,0.5-0.2V57.2z"/>
									<polygon fill="#FFFFFF" points="96.1,58 96.1,55.8 95.3,55.8 95.3,55.5 97.3,55.5 97.3,55.8 96.5,55.8 96.5,58 									
										"/>
									<path fill="#FFFFFF" d="M98.6,57.9C98.5,58,98.2,58,97.9,58c-0.6,0-1-0.4-1-1c0-0.6,0.3-1,0.9-1c0.6,0,0.8,0.4,0.8,0.8
										c0,0.1,0,0.2,0,0.3h-1.2c0,0.4,0.2,0.5,0.6,0.5c0.3,0,0.6-0.1,0.7-0.1L98.6,57.9z M98.2,56.8c0-0.3-0.1-0.4-0.4-0.4
										c-0.3,0-0.4,0.2-0.4,0.5L98.2,56.8L98.2,56.8z"/>
									<path fill="#FFFFFF" d="M100.2,58c0,0-0.4-0.8-0.4-0.8h-0.3V58h-0.4v-2.6h0.4v1.5c0.1,0,0.2,0,0.3-0.1
										c0.1-0.1,0.4-0.7,0.4-0.7h0.4c-0.1,0.1-0.3,0.7-0.5,1l0.5,0.9H100.2z"/>
								</g>
								<path fill="#FFFFFF" d="M102.8,48.6h-0.3v0.7h-0.2v-0.7h-0.3v-0.1h0.7V48.6z M103.4,49l0.2-0.6h0.2v0.8h-0.2v-0.7h0
									l-0.2,0.7h-0.1l-0.2-0.7h0v0.7H103v-0.8h0.2L103.4,49z"/>
							</g>
							<g>
								<g>
									<path fill="#FFFFFF" d="M66.8,52.6L66.8,52.6L66.8,52.6l-1.7-1.7L65,50.7l0.1-0.1l5.3-5.3c-0.4-0.4-1-0.6-1.6-0.6
										c-0.6,0-1.2,0.2-1.6,0.6l0,0l-5.3,5.3l5,5C67.7,54.9,67.7,53.4,66.8,52.6z"/>
									<path fill="#FFFFFF" d="M61.8,50.8l5.3-5.3l0,0c0.4-0.4,1-0.6,1.6-0.6c0.6,0,1.1,0.2,1.6,0.6l-5.3,5.3L65,50.7l0.1,0.1
										l1.7,1.7l0,0l0.1,0.1c0.9,0.9,0.9,2.3,0.1,3.2L61.8,50.8z"/>
								</g>
								<path fill="#FFFFFF" d="M76.2,51.1L76.2,51.1l-5.4-5.4l-5,5c0.9,0.8,2.3,0.8,3.2-0.1l0.1-0.1l0,0l1.7-1.7l0.1-0.1l0.1,0.1
									l5.3,5.3c0.4-0.4,0.6-1,0.6-1.6C76.8,52.1,76.6,51.5,76.2,51.1z"/>
								<g>
									<path fill="#FFFFFF" d="M68.7,54.7L68.7,54.7L68.7,54.7L67,56.5l-0.1,0.1l-0.1-0.1l-5.3-5.3c-0.4,0.4-0.6,1-0.6,1.6
										c0,0.6,0.2,1.2,0.6,1.6l0,0l0,0l5.3,5.3l5-5C71,53.8,69.6,53.9,68.7,54.7z"/>
								</g>
								<g>
									<path fill="#FFFFFF" d="M75.8,54.6l-5-5c-0.8,0.9-0.8,2.3,0.1,3.2l0.1,0.1l0,0l1.7,1.7l0.1,0.1l-0.1,0.1l-5.3,5.3
										c0.4,0.4,1,0.6,1.6,0.6c0.6,0,1.2-0.2,1.6-0.7l0,0L75.8,54.6z"/>
								</g>
								<g>
									<path fill="#FFFFFF" d="M76.2,51.1L76.2,51.1l-5.4-5.4l-5,5c0.9,0.8,2.3,0.8,3.2-0.1l0.1-0.1l0,0l1.7-1.7l0.1-0.1l0.1,0.1
										l5.3,5.3c0.4-0.4,0.6-1,0.6-1.6C76.8,52.1,76.6,51.5,76.2,51.1z"/>
								</g>
							</g>
						</g>
						<g>
							<g>
								<g>
									<g>
										<g>
											<path fill="#FFFFFF" d="M154.4,52.2c-1.2,0-2.2-1-2.2-2.2c0-1.2,1-2.2,2.2-2.2c0.7,0,1.4,0.4,1.8,0.9l0.9,0
												c-0.5-1-1.5-1.7-2.7-1.7c-1.5,0-2.8,1.1-3,2.6c-0.2,0-1.8,0-1.9,0c-0.1,0-0.1,0-0.1,0s0-1.3,0-1.5c0-0.1,0.2-0.2,0.2-0.2
												s1.8,0,1.9,0c0.1,0,0,0,0,0v-1l0,0c0,0-1.8,0-2.3,0c-0.2,0-0.5,0.2-0.6,0.4c-0.2,0.2-0.2,0.5-0.2,0.5s0,5,0,5.1
												c0,0.1,0.1,0.1,0.1,0.1s0.7,0,0.8,0c0.1,0,0,0,0,0s0-2.5,0-2.5c0-0.1,0,0,0,0h1.9c0.2,1.5,1.4,2.6,3,2.6
												c1.2,0,2.2-0.7,2.7-1.7l-1,0C155.7,51.9,155.1,52.2,154.4,52.2"/>
											<path fill="#FFFFFF" d="M154.4,49c0.4,0,0.7,0.2,0.9,0.4l0.9,0c-0.3-0.7-0.9-1.2-1.7-1.2c-1,0-1.8,0.8-1.8,1.8
												c0,1,0.8,1.8,1.8,1.8c0.8,0,1.5-0.5,1.7-1.2l-0.9,0c-0.2,0.2-0.5,0.4-0.8,0.4c-0.6,0-1-0.5-1-1
												C153.3,49.5,153.8,49,154.4,49"/>
										</g>
										<g>
											<path fill="#FFFFFF" d="M140,52.1V53c-0.1,0-0.2,0-0.3,0c-1.7,0-3.1-1.4-3.1-3.1c0-1.7,1.4-3.1,3.1-3.1
												c0.1,0,0.2,0,0.3,0v0.9c-0.1,0-0.2,0-0.3,0c-1.2,0-2.2,1-2.2,2.2c0,1.2,1,2.2,2.2,2.2C139.8,52.1,139.9,52.1,140,52.1z"
												/>
											<path fill="#FFFFFF" d="M142.8,49.5h1.8v0.9h-1.8c0.2,1,1.1,1.7,2.1,1.7c0.1,0,0.2,0,0.3,0V53c-0.1,0-0.2,0-0.3,0
												c-1.7,0-3.1-1.4-3.1-3.1c0-1.7,1.4-3.1,3.1-3.1c0.1,0,0.2,0,0.3,0v0.9c-0.1,0-0.2,0-0.3,0
												C143.9,47.8,143.1,48.5,142.8,49.5z"/>
										</g>
									</g>
								</g>
							</g>
						</g>
						<g>
							<path fill="#FFFFFF" d="M116.4,56.8V58h-0.3v-2.5h1.7v0.2h-1.4v0.9h1.2v0.2H116.4z"/>
							<path fill="#FFFFFF" d="M119.8,57.9c0,0-0.4,0.1-0.7,0.1c-0.8,0-1.2-0.5-1.2-1.3c0-0.8,0.4-1.3,1.2-1.3
								c0.3,0,0.6,0.1,0.6,0.1l0,0.2c-0.1-0.1-0.4-0.1-0.6-0.1c-0.5,0-0.9,0.2-0.9,1.1c0,0.8,0.4,1,0.9,1c0.2,0,0.5,0,0.6-0.1
								L119.8,57.9z"/>
							<path fill="#FFFFFF" d="M121.9,57.9c0,0-0.4,0.1-0.7,0.1c-0.8,0-1.2-0.5-1.2-1.3c0-0.8,0.4-1.3,1.2-1.3
								c0.3,0,0.6,0.1,0.6,0.1l0,0.2c-0.1-0.1-0.4-0.1-0.6-0.1c-0.5,0-0.9,0.2-0.9,1.1c0,0.8,0.4,1,0.9,1c0.2,0,0.5,0,0.6-0.1
								L121.9,57.9z"/>
							<path fill="#FFFFFF" d="M123,58v-2.5h0.3V58H123z"/>
							<path fill="#FFFFFF" d="M123.7,55.5h0.8c0.8,0,1.2,0.5,1.2,1.3c0,0.7-0.3,1.3-1.2,1.3h-0.8V55.5z M124.6,57.7
								c0.7,0,0.9-0.4,0.9-1c0-0.6-0.2-1-0.9-1H124v2.1H124.6z"/>
							<path fill="#FFFFFF" d="M126.3,56.6c-0.1,0-0.2-0.1-0.2-0.2c0-0.1,0.1-0.2,0.2-0.2c0.1,0,0.2,0.1,0.2,0.2
								C126.5,56.5,126.4,56.6,126.3,56.6z M126.3,58c-0.1,0-0.2-0.1-0.2-0.2c0-0.1,0.1-0.2,0.2-0.2c0.1,0,0.2,0.1,0.2,0.2
								C126.5,57.9,126.4,58,126.3,58z"/>
							<path fill="#FFFFFF" d="M127.6,58v-0.2l1.4-1.9l0.2-0.2l-0.3,0h-1.3v-0.2h1.8v0.2l-1.4,1.9l-0.2,0.2l0.3,0h1.3V58H127.6z"/>
							<path fill="#FFFFFF" d="M131,58v-0.6h-1.2l-0.1-0.2l1.1-1.7h0.4v1.7h0.4v0.2h-0.4V58H131z M131,55.9l0-0.3l-0.2,0.3l-0.8,1.2
								h1V55.9z"/>
							<path fill="#FFFFFF" d="M132.5,58v-2.3h-0.8v-0.2h1.9v0.2h-0.8V58H132.5z"/>
							<path fill="#FFFFFF" d="M133.8,57v-0.2h1V57H133.8z"/>
							<path fill="#FFFFFF" d="M135.2,58v-2.5h0.3v2.3h1.3V58H135.2z"/>
							<path fill="#FFFFFF" d="M137,58v-2.5h0.3V58H137z"/>
							<path fill="#FFFFFF" d="M139.5,58l-1.2-1.7l-0.2-0.4l0,0.4V58h-0.3v-2.5h0.3l1.2,1.8l0.2,0.4l0-0.4v-1.8h0.3V58H139.5z"/>
							<path fill="#FFFFFF" d="M141.8,58c0,0-0.8-1.1-0.8-1.1h-0.5V58h-0.3v-2.5h0.3v1.2c0.2,0,0.4,0,0.6,0c0.2-0.1,0.8-1.2,0.8-1.2
								h0.3c-0.1,0.2-0.7,1.1-0.9,1.3l0.9,1.2H141.8z"/>
							<path fill="#FFFFFF" d="M142.4,58v-2.5h0.3V58H142.4z"/>
							<path fill="#FFFFFF" d="M143.7,58v-2.3h-0.8v-0.2h1.9v0.2H144V58H143.7z"/>
							<path fill="#FFFFFF" d="M145,57.6c0,0,0.4,0.1,0.8,0.1c0.4,0,0.7-0.1,0.7-0.5c0-0.7-1.5-0.4-1.5-1.2c0-0.4,0.4-0.7,0.9-0.7
								c0.4,0,0.7,0.1,0.7,0.1l0,0.2c-0.2-0.1-0.5-0.1-0.7-0.1c-0.4,0-0.7,0.1-0.7,0.4c0,0.6,1.5,0.3,1.5,1.2c0,0.5-0.4,0.7-0.9,0.7
								c-0.4,0-0.8-0.1-0.8-0.1L145,57.6z"/>
							<path fill="#FFFFFF" d="M147.2,58l0.9-2.1l0.1-0.2l-0.3,0H147v-0.2h1.5l0,0.2l-1,2.3H147.2z"/>
							<path fill="#FFFFFF" d="M150.2,55.7c-0.2,0-0.3-0.1-0.4-0.1c-0.6,0-0.8,0.4-0.8,1c0.1-0.1,0.4-0.2,0.7-0.2
								c0.5,0,0.8,0.3,0.8,0.7c0,0.5-0.3,0.8-0.8,0.8c-0.7,0-0.9-0.5-0.9-1.2c0-0.9,0.3-1.4,1-1.4c0.1,0,0.3,0,0.5,0.1L150.2,55.7z
								 M149.6,57.8c0.3,0,0.6-0.1,0.6-0.6c0-0.4-0.2-0.5-0.5-0.5c-0.3,0-0.5,0.1-0.7,0.2C149,57.4,149.2,57.8,149.6,57.8z"/>
							<path fill="#FFFFFF" d="M152.6,57.3c0,0.4-0.3,0.7-0.9,0.7c-0.6,0-0.9-0.3-0.9-0.7c0-0.4,0.2-0.6,0.5-0.7
								c-0.3-0.1-0.5-0.3-0.5-0.6c0-0.4,0.3-0.6,0.8-0.6c0.6,0,0.9,0.3,0.9,0.6s-0.3,0.6-0.5,0.6C152.3,56.8,152.6,56.9,152.6,57.3z
								 M151,57.3c0,0.3,0.3,0.5,0.7,0.5c0.4,0,0.6-0.2,0.6-0.5c0-0.4-0.3-0.5-0.7-0.6C151.3,56.8,151,57,151,57.3z M152.2,56.1
								c0-0.3-0.3-0.4-0.6-0.4s-0.6,0.1-0.6,0.4c0,0.3,0.3,0.4,0.7,0.5C152,56.5,152.2,56.3,152.2,56.1z"/>
							<path fill="#FFFFFF" d="M154.7,57.3c0,0.4-0.3,0.7-0.9,0.7c-0.6,0-0.9-0.3-0.9-0.7c0-0.4,0.2-0.6,0.5-0.7
								c-0.3-0.1-0.5-0.3-0.5-0.6c0-0.4,0.3-0.6,0.8-0.6c0.6,0,0.9,0.3,0.9,0.6s-0.3,0.6-0.5,0.6C154.5,56.8,154.7,56.9,154.7,57.3z
								 M153.1,57.3c0,0.3,0.3,0.5,0.7,0.5c0.4,0,0.6-0.2,0.6-0.5c0-0.4-0.3-0.5-0.7-0.6C153.4,56.8,153.1,57,153.1,57.3z
								 M154.4,56.1c0-0.3-0.3-0.4-0.6-0.4s-0.6,0.1-0.6,0.4c0,0.3,0.3,0.4,0.7,0.5C154.2,56.5,154.4,56.3,154.4,56.1z"/>
							<path fill="#FFFFFF" d="M155.1,55.5h0.8c0.8,0,1.2,0.5,1.2,1.3c0,0.7-0.3,1.3-1.2,1.3h-0.8V55.5z M155.9,57.7
								c0.7,0,0.9-0.4,0.9-1c0-0.6-0.2-1-0.9-1h-0.6v2.1H155.9z"/>
						</g>
					</g>
					<rect x="60.9" y="40.5" fill="#FFFFFF" width="96.2" height="0.5"/>
				</g>
				<polyline opacity="0.1" fill="#FFFFFF" points="56.5,64.1 56.5,64.1 56.5,9.6 56.5,9.6 56.9,9.6 161.5,9.6 				"/>
			</g>
			<g>
				<text transform="matrix(0 1 -1 0 146.2218 2.5525)" fill="#FFFFFF" font-family="'OCRA'" font-size="2.7196px">P1</text>
				<text transform="matrix(0 1 -1 0 31.336 2.6199)" fill="#FFFFFF" font-family="'OCRA'" font-size="2.7196px">A3</text>
				<text transform="matrix(0 1 -1 0 38.5313 2.6062)" fill="#FFFFFF" font-family="'OCRA'" font-size="2.7196px">A2</text>
				<text transform="matrix(0 1 -1 0 60.0391 2.5378)" fill="#FFFFFF" font-family="'OCRA'" font-size="2.7196px">5V</text>
				<text transform="matrix(0 1 -1 0 67.2203 1.6462)" fill="#FFFFFF" font-family="'OCRA'" font-size="2.7196px">VCC</text>
				<text transform="matrix(0 1 -1 0 88.7335 2.6091)" fill="#FFFFFF" font-family="'OCRA'" font-size="2.7196px">P9</text>
				<text transform="matrix(0 1 -1 0 95.9439 2.6238)" fill="#FFFFFF" font-family="'OCRA'" font-size="2.7196px">P8</text>
				<text transform="matrix(0 1 -1 0 117.4845 2.5661)" fill="#FFFFFF" font-family="'OCRA'" font-size="2.7196px">P5</text>
				<text transform="matrix(0 1 -1 0 124.6798 2.5661)" fill="#FFFFFF" font-family="'OCRA'" font-size="2.7196px">P4</text>
				<text transform="matrix(0 1 -1 0 153.3888 2.5378)" fill="#FFFFFF" font-family="'OCRA'" font-size="2.7196px">P0</text>
				<text transform="matrix(0 1 -1 0 45.6973 2.5925)" fill="#FFFFFF" font-family="'OCRA'" font-size="2.7196px">A1</text>
				<text transform="matrix(0 1 -1 0 16.8194 2.6062)" fill="#FFFFFF" font-family="'OCRA'" font-size="2.7196px">A5</text>
				<text transform="matrix(0 1 -1 0 24.1558 2.6199)" fill="#FFFFFF" font-family="'OCRA'" font-size="2.7196px">A4</text>
				<text transform="matrix(0 1 -1 0 52.8785 2.5779)" fill="#FFFFFF" font-family="'OCRA'" font-size="2.7196px">A0</text>
				<text transform="matrix(0 1 -1 0 81.7227 1.6345)" fill="#FFFFFF" font-family="'OCRA'" font-size="2.7196px">GND</text>
				<text transform="matrix(0 1 -1 0 74.4434 1.6911)" fill="#FFFFFF" font-family="'OCRA'" font-size="2.7196px">3V3</text>
				<text transform="matrix(0 1 -1 0 103.1378 2.6228)" fill="#FFFFFF" font-family="'OCRA'" font-size="2.7196px">P7</text>
				<text transform="matrix(0 1 -1 0 110.3038 2.5945)" fill="#FFFFFF" font-family="'OCRA'" font-size="2.7196px">P6</text>
				<text transform="matrix(0 1 -1 0 131.8311 2.5525)" fill="#FFFFFF" font-family="'OCRA'" font-size="2.7196px">P3</text>
				<text transform="matrix(0 1 -1 0 139.0264 2.5525)" fill="#FFFFFF" font-family="'OCRA'" font-size="2.7196px">P2</text>
			</g>
			<g>
				<text transform="matrix(0 1 -1 0 146.0001 67.1775)" fill="#FFFFFF" font-family="'OCRA'" font-size="2.7196px">S1</text>
				<text transform="matrix(0 1 -1 0 31.1143 66.2052)" fill="#FFFFFF" font-family="'OCRA'" font-size="2.7196px">D13</text>
				<text transform="matrix(0 1 -1 0 38.3097 66.2052)" fill="#FFFFFF" font-family="'OCRA'" font-size="2.7196px">D12</text>
				<text transform="matrix(0 1 -1 0 59.8175 67.1775)" fill="#FFFFFF" font-family="'OCRA'" font-size="2.7196px">D9</text>
				<text transform="matrix(0 1 -1 0 66.9986 67.1775)" fill="#FFFFFF" font-family="'OCRA'" font-size="2.7196px">D8</text>
				<text transform="matrix(0 1 -1 0 88.5118 67.1775)" fill="#FFFFFF" font-family="'OCRA'" font-size="2.7196px">D5</text>
				<text transform="matrix(0 1 -1 0 95.7223 67.1775)" fill="#FFFFFF" font-family="'OCRA'" font-size="2.7196px">D4</text>
				<text transform="matrix(0 1 -1 0 117.2628 67.1775)" fill="#FFFFFF" font-family="'OCRA'" font-size="2.7196px">D1</text>
				<text transform="matrix(0 1 -1 0 124.4581 67.1775)" fill="#FFFFFF" font-family="'OCRA'" font-size="2.7196px">D0</text>
				<text transform="matrix(0 1 -1 0 153.1671 67.1775)" fill="#FFFFFF" font-family="'OCRA'" font-size="2.7196px">S0</text>
				<text transform="matrix(0 1 -1 0 45.4757 66.2052)" fill="#FFFFFF" font-family="'OCRA'" font-size="2.7196px">D11</text>
				<text transform="matrix(0 1 -1 0 16.5977 65.233)" fill="#FFFFFF" font-family="'OCRA'" font-size="2.7196px">AREF</text>
				<text transform="matrix(0 1 -1 0 23.9342 66.2052)" fill="#FFFFFF" font-family="'OCRA'" font-size="2.7196px">RST</text>
				<text transform="matrix(0 1 -1 0 52.6568 66.2052)" fill="#FFFFFF" font-family="'OCRA'" font-size="2.7196px">D10</text>
				<text transform="matrix(0 1 -1 0 81.5011 67.1775)" fill="#FFFFFF" font-family="'OCRA'" font-size="2.7196px">D6</text>
				<text transform="matrix(0 1 -1 0 74.2218 67.1775)" fill="#FFFFFF" font-family="'OCRA'" font-size="2.7196px">D7</text>
				<text transform="matrix(0 1 -1 0 102.9161 67.1775)" fill="#FFFFFF" font-family="'OCRA'" font-size="2.7196px">D3</text>
				<text transform="matrix(0 1 -1 0 110.0821 67.1775)" fill="#FFFFFF" font-family="'OCRA'" font-size="2.7196px">D2</text>
				<text transform="matrix(0 1 -1 0 131.6095 67.1775)" fill="#FFFFFF" font-family="'OCRA'" font-size="2.7196px">S3</text>
				<text transform="matrix(0 1 -1 0 138.8048 67.1775)" fill="#FFFFFF" font-family="'OCRA'" font-size="2.7196px">S2</text>
			</g>
			<g>
				<g>
					<circle fill="#B8AF82" cx="78.9" cy="4.6" r="2.3"/>
					<g>
						<rect id="rect209542-3_7_" x="78.3" y="4" fill="#B3B3B3" width="1.2" height="1.2"/>
						<polygon id="polygon209544-4_7_" fill="#999999" points="78.3,5.2 79.5,5.2 80,5.7 77.7,5.7 						"/>
						<polygon id="polygon209546-5_7_" fill="#808080" points="79.5,5.2 80,5.7 80,3.4 79.5,4 						"/>
						<polygon id="polygon209548-0_7_" fill="#CCCCCC" points="79.5,4 80,3.4 77.7,3.4 78.3,4 						"/>
						<polygon id="polygon209550-1_7_" fill="#CCCCCC" points="78.3,5.2 78.3,4 77.7,3.4 77.7,5.7 						"/>
					</g>
				</g>
				<g>
					<circle fill="#B8AF82" cx="21.5" cy="4.6" r="2.3"/>
					<g>
						<rect id="rect209542-3_9_" x="20.9" y="4" fill="#B3B3B3" width="1.2" height="1.2"/>
						<polygon id="polygon209544-4_9_" fill="#999999" points="20.9,5.2 22,5.2 22.6,5.7 20.3,5.7 						"/>
						<polygon id="polygon209546-5_9_" fill="#808080" points="22,5.2 22.6,5.7 22.6,3.4 22,4 						"/>
						<polygon id="polygon209548-0_9_" fill="#CCCCCC" points="22,4 22.6,3.4 20.3,3.4 20.9,4 						"/>
						<polygon id="polygon209550-1_9_" fill="#CCCCCC" points="20.9,5.2 20.9,4 20.3,3.4 20.3,5.7 						"/>
					</g>
				</g>
				<g>
					<circle fill="#B8AF82" cx="86.1" cy="4.6" r="2.3"/>
					<g>
						<rect id="rect209542-3_8_" x="85.5" y="4" fill="#B3B3B3" width="1.2" height="1.2"/>
						<polygon id="polygon209544-4_8_" fill="#999999" points="85.5,5.2 86.7,5.2 87.2,5.7 84.9,5.7 						"/>
						<polygon id="polygon209546-5_8_" fill="#808080" points="86.7,5.2 87.2,5.7 87.2,3.4 86.7,4 						"/>
						<polygon id="polygon209548-0_8_" fill="#CCCCCC" points="86.7,4 87.2,3.4 84.9,3.4 85.5,4 						"/>
						<polygon id="polygon209550-1_8_" fill="#CCCCCC" points="85.5,5.2 85.5,4 84.9,3.4 84.9,5.7 						"/>
					</g>
				</g>
				<g>
					<circle fill="#B8AF82" cx="93.3" cy="4.6" r="2.3"/>
					<g>
						<rect id="rect209542-3_11_" x="92.7" y="4" fill="#B3B3B3" width="1.2" height="1.2"/>
						<polygon id="polygon209544-4_11_" fill="#999999" points="92.7,5.2 93.8,5.2 94.4,5.7 92.1,5.7 						"/>
						<polygon id="polygon209546-5_11_" fill="#808080" points="93.8,5.2 94.4,5.7 94.4,3.4 93.8,4 						"/>
						<polygon id="polygon209548-0_11_" fill="#CCCCCC" points="93.8,4 94.4,3.4 92.1,3.4 92.7,4 						"/>
						<polygon id="polygon209550-1_11_" fill="#CCCCCC" points="92.7,5.2 92.7,4 92.1,3.4 92.1,5.7 						"/>
					</g>
				</g>
				<g>
					<circle fill="#B8AF82" cx="100.4" cy="4.6" r="2.3"/>
					<g>
						<rect id="rect209542-3_10_" x="99.8" y="4" fill="#B3B3B3" width="1.2" height="1.2"/>
						<polygon id="polygon209544-4_10_" fill="#999999" points="99.8,5.2 101,5.2 101.6,5.7 99.3,5.7 						"/>
						<polygon id="polygon209546-5_10_" fill="#808080" points="101,5.2 101.6,5.7 101.6,3.4 101,4 						"/>
						<polygon id="polygon209548-0_10_" fill="#CCCCCC" points="101,4 101.6,3.4 99.3,3.4 99.8,4 						"/>
						<polygon id="polygon209550-1_10_" fill="#CCCCCC" points="99.8,5.2 99.8,4 99.3,3.4 99.3,5.7 						"/>
					</g>
				</g>
				<g>
					<circle fill="#B8AF82" cx="107.6" cy="4.6" r="2.3"/>
					<g>
						<rect id="rect209542-3_15_" x="107" y="4" fill="#B3B3B3" width="1.2" height="1.2"/>
						<polygon id="polygon209544-4_15_" fill="#999999" points="107,5.2 108.2,5.2 108.8,5.7 106.5,5.7 						"/>
						<polygon id="polygon209546-5_15_" fill="#808080" points="108.2,5.2 108.8,5.7 108.8,3.4 108.2,4 						"/>
						<polygon id="polygon209548-0_15_" fill="#CCCCCC" points="108.2,4 108.8,3.4 106.5,3.4 107,4 						"/>
						<polygon id="polygon209550-1_15_" fill="#CCCCCC" points="107,5.2 107,4 106.5,3.4 106.5,5.7 						"/>
					</g>
				</g>
				<g>
					<circle fill="#B8AF82" cx="114.8" cy="4.6" r="2.3"/>
					<g>
						<rect id="rect209542-3_14_" x="114.2" y="4" fill="#B3B3B3" width="1.2" height="1.2"/>
						<polygon id="polygon209544-4_14_" fill="#999999" points="114.2,5.2 115.4,5.2 115.9,5.7 113.7,5.7 						"/>
						<polygon id="polygon209546-5_14_" fill="#808080" points="115.4,5.2 115.9,5.7 115.9,3.4 115.4,4 						"/>
						<polygon id="polygon209548-0_14_" fill="#CCCCCC" points="115.4,4 115.9,3.4 113.7,3.4 114.2,4 						"/>
						<polygon id="polygon209550-1_14_" fill="#CCCCCC" points="114.2,5.2 114.2,4 113.7,3.4 113.7,5.7 						"/>
					</g>
				</g>
				<g>
					<circle fill="#B8AF82" cx="122" cy="4.6" r="2.3"/>
					<g>
						<rect id="rect209542-3_13_" x="121.4" y="4" fill="#B3B3B3" width="1.2" height="1.2"/>
						<polygon id="polygon209544-4_13_" fill="#999999" points="121.4,5.2 122.6,5.2 123.1,5.7 120.8,5.7 						"/>
						<polygon id="polygon209546-5_13_" fill="#808080" points="122.6,5.2 123.1,5.7 123.1,3.4 122.6,4 						"/>
						<polygon id="polygon209548-0_13_" fill="#CCCCCC" points="122.6,4 123.1,3.4 120.8,3.4 121.4,4 						"/>
						<polygon id="polygon209550-1_13_" fill="#CCCCCC" points="121.4,5.2 121.4,4 120.8,3.4 120.8,5.7 						"/>
					</g>
				</g>
				<g>
					<circle fill="#B8AF82" cx="129.2" cy="4.6" r="2.3"/>
					<g>
						<rect id="rect209542-3_12_" x="128.6" y="4" fill="#B3B3B3" width="1.2" height="1.2"/>
						<polygon id="polygon209544-4_12_" fill="#999999" points="128.6,5.2 129.7,5.2 130.3,5.7 128,5.7 						"/>
						<polygon id="polygon209546-5_12_" fill="#808080" points="129.7,5.2 130.3,5.7 130.3,3.4 129.7,4 						"/>
						<polygon id="polygon209548-0_12_" fill="#CCCCCC" points="129.7,4 130.3,3.4 128,3.4 128.6,4 						"/>
						<polygon id="polygon209550-1_12_" fill="#CCCCCC" points="128.6,5.2 128.6,4 128,3.4 128,5.7 						"/>
					</g>
				</g>
				<g>
					<circle fill="#B8AF82" cx="136.3" cy="4.6" r="2.3"/>
					<g>
						<rect id="rect209542-3_21_" x="135.8" y="4" fill="#B3B3B3" width="1.2" height="1.2"/>
						<polygon id="polygon209544-4_21_" fill="#999999" points="135.8,5.2 136.9,5.2 137.5,5.7 135.2,5.7 						"/>
						<polygon id="polygon209546-5_21_" fill="#808080" points="136.9,5.2 137.5,5.7 137.5,3.4 136.9,4 						"/>
						<polygon id="polygon209548-0_21_" fill="#CCCCCC" points="136.9,4 137.5,3.4 135.2,3.4 135.8,4 						"/>
						<polygon id="polygon209550-1_21_" fill="#CCCCCC" points="135.8,5.2 135.8,4 135.2,3.4 135.2,5.7 						"/>
					</g>
				</g>
				<g>
					<circle fill="#B8AF82" cx="143.5" cy="4.6" r="2.3"/>
					<g>
						<rect id="rect209542-3_20_" x="142.9" y="4" fill="#B3B3B3" width="1.2" height="1.2"/>
						<polygon id="polygon209544-4_20_" fill="#999999" points="142.9,5.2 144.1,5.2 144.7,5.7 142.4,5.7 						"/>
						<polygon id="polygon209546-5_20_" fill="#808080" points="144.1,5.2 144.7,5.7 144.7,3.4 144.1,4 						"/>
						<polygon id="polygon209548-0_20_" fill="#CCCCCC" points="144.1,4 144.7,3.4 142.4,3.4 142.9,4 						"/>
						<polygon id="polygon209550-1_20_" fill="#CCCCCC" points="142.9,5.2 142.9,4 142.4,3.4 142.4,5.7 						"/>
					</g>
				</g>
				<g>
					<circle fill="#B8AF82" cx="150.7" cy="4.6" r="2.3"/>
					<g>
						<rect id="rect209542-3_19_" x="150.1" y="4" fill="#B3B3B3" width="1.2" height="1.2"/>
						<polygon id="polygon209544-4_19_" fill="#999999" points="150.1,5.2 151.3,5.2 151.9,5.7 149.6,5.7 						"/>
						<polygon id="polygon209546-5_19_" fill="#808080" points="151.3,5.2 151.9,5.7 151.9,3.4 151.3,4 						"/>
						<polygon id="polygon209548-0_19_" fill="#CCCCCC" points="151.3,4 151.9,3.4 149.6,3.4 150.1,4 						"/>
						<polygon id="polygon209550-1_19_" fill="#CCCCCC" points="150.1,5.2 150.1,4 149.6,3.4 149.6,5.7 						"/>
					</g>
				</g>
				<g>
					<circle fill="#B8AF82" cx="157.9" cy="4.6" r="2.3"/>
					<g>
						<rect id="rect209542-3_18_" x="157.3" y="4" fill="#B3B3B3" width="1.2" height="1.2"/>
						<polygon id="polygon209544-4_18_" fill="#999999" points="157.3,5.2 158.5,5.2 159,5.7 156.7,5.7 						"/>
						<polygon id="polygon209546-5_18_" fill="#808080" points="158.5,5.2 159,5.7 159,3.4 158.5,4 						"/>
						<polygon id="polygon209548-0_18_" fill="#CCCCCC" points="158.5,4 159,3.4 156.7,3.4 157.3,4 						"/>
						<polygon id="polygon209550-1_18_" fill="#CCCCCC" points="157.3,5.2 157.3,4 156.7,3.4 156.7,5.7 						"/>
					</g>
				</g>
				<g>
					<circle fill="#B8AF82" cx="71.7" cy="4.6" r="2.3"/>
					<g>
						<rect id="rect209542-3_17_" x="71.1" y="4" fill="#B3B3B3" width="1.2" height="1.2"/>
						<polygon id="polygon209544-4_17_" fill="#999999" points="71.1,5.2 72.3,5.2 72.9,5.7 70.6,5.7 						"/>
						<polygon id="polygon209546-5_17_" fill="#808080" points="72.3,5.2 72.9,5.7 72.9,3.4 72.3,4 						"/>
						<polygon id="polygon209548-0_17_" fill="#CCCCCC" points="72.3,4 72.9,3.4 70.6,3.4 71.1,4 						"/>
						<polygon id="polygon209550-1_17_" fill="#CCCCCC" points="71.1,5.2 71.1,4 70.6,3.4 70.6,5.7 						"/>
					</g>
				</g>
				<g>
					<circle fill="#B8AF82" cx="64.5" cy="4.6" r="2.3"/>
					<g>
						<rect id="rect209542-3_16_" x="63.9" y="4" fill="#B3B3B3" width="1.2" height="1.2"/>
						<polygon id="polygon209544-4_16_" fill="#999999" points="63.9,5.2 65.1,5.2 65.7,5.7 63.4,5.7 						"/>
						<polygon id="polygon209546-5_16_" fill="#808080" points="65.1,5.2 65.7,5.7 65.7,3.4 65.1,4 						"/>
						<polygon id="polygon209548-0_16_" fill="#CCCCCC" points="65.1,4 65.7,3.4 63.4,3.4 63.9,4 						"/>
						<polygon id="polygon209550-1_16_" fill="#CCCCCC" points="63.9,5.2 63.9,4 63.4,3.4 63.4,5.7 						"/>
					</g>
				</g>
				<g>
					<circle fill="#B8AF82" cx="50.2" cy="4.6" r="2.3"/>
					<g>
						<rect id="rect209542-3_27_" x="49.6" y="4" fill="#B3B3B3" width="1.2" height="1.2"/>
						<polygon id="polygon209544-4_27_" fill="#999999" points="49.6,5.2 50.8,5.2 51.3,5.7 49,5.7 						"/>
						<polygon id="polygon209546-5_27_" fill="#808080" points="50.8,5.2 51.3,5.7 51.3,3.4 50.8,4 						"/>
						<polygon id="polygon209548-0_27_" fill="#CCCCCC" points="50.8,4 51.3,3.4 49,3.4 49.6,4 						"/>
						<polygon id="polygon209550-1_27_" fill="#CCCCCC" points="49.6,5.2 49.6,4 49,3.4 49,5.7 						"/>
					</g>
				</g>
				<g>
					<circle fill="#B8AF82" cx="57.4" cy="4.6" r="2.3"/>
					<g>
						<rect id="rect209542-3_26_" x="56.8" y="4" fill="#B3B3B3" width="1.2" height="1.2"/>
						<polygon id="polygon209544-4_26_" fill="#999999" points="56.8,5.2 57.9,5.2 58.5,5.7 56.2,5.7 						"/>
						<polygon id="polygon209546-5_26_" fill="#808080" points="57.9,5.2 58.5,5.7 58.5,3.4 57.9,4 						"/>
						<polygon id="polygon209548-0_26_" fill="#CCCCCC" points="57.9,4 58.5,3.4 56.2,3.4 56.8,4 						"/>
						<polygon id="polygon209550-1_26_" fill="#CCCCCC" points="56.8,5.2 56.8,4 56.2,3.4 56.2,5.7 						"/>
					</g>
				</g>
				<g>
					<circle fill="#B8AF82" cx="35.8" cy="4.6" r="2.3"/>
					<g>
						<rect id="rect209542-3_25_" x="35.2" y="4" fill="#B3B3B3" width="1.2" height="1.2"/>
						<polygon id="polygon209544-4_25_" fill="#999999" points="35.2,5.2 36.4,5.2 37,5.7 34.7,5.7 						"/>
						<polygon id="polygon209546-5_25_" fill="#808080" points="36.4,5.2 37,5.7 37,3.4 36.4,4 						"/>
						<polygon id="polygon209548-0_25_" fill="#CCCCCC" points="36.4,4 37,3.4 34.7,3.4 35.2,4 						"/>
						<polygon id="polygon209550-1_25_" fill="#CCCCCC" points="35.2,5.2 35.2,4 34.7,3.4 34.7,5.7 						"/>
					</g>
				</g>
				<g>
					<circle fill="#B8AF82" cx="43" cy="4.6" r="2.3"/>
					<g>
						<rect id="rect209542-3_24_" x="42.4" y="4" fill="#B3B3B3" width="1.2" height="1.2"/>
						<polygon id="polygon209544-4_24_" fill="#999999" points="42.4,5.2 43.6,5.2 44.1,5.7 41.8,5.7 						"/>
						<polygon id="polygon209546-5_24_" fill="#808080" points="43.6,5.2 44.1,5.7 44.1,3.4 43.6,4 						"/>
						<polygon id="polygon209548-0_24_" fill="#CCCCCC" points="43.6,4 44.1,3.4 41.8,3.4 42.4,4 						"/>
						<polygon id="polygon209550-1_24_" fill="#CCCCCC" points="42.4,5.2 42.4,4 41.8,3.4 41.8,5.7 						"/>
					</g>
				</g>
				<g>
					<circle fill="#B8AF82" cx="28.6" cy="4.6" r="2.3"/>
					<g>
						<rect id="rect209542-3_23_" x="28" y="4" fill="#B3B3B3" width="1.2" height="1.2"/>
						<polygon id="polygon209544-4_23_" fill="#999999" points="28,5.2 29.2,5.2 29.8,5.7 27.5,5.7 						"/>
						<polygon id="polygon209546-5_23_" fill="#808080" points="29.2,5.2 29.8,5.7 29.8,3.4 29.2,4 						"/>
						<polygon id="polygon209548-0_23_" fill="#CCCCCC" points="29.2,4 29.8,3.4 27.5,3.4 28,4 						"/>
						<polygon id="polygon209550-1_23_" fill="#CCCCCC" points="28,5.2 28,4 27.5,3.4 27.5,5.7 						"/>
					</g>
				</g>
			</g>
			<g>
				<g>
					<circle fill="#B8AF82" cx="21.5" cy="69.1" r="2.3"/>
					<g>
						<rect id="rect209542-3_46_" x="20.9" y="68.5" fill="#B3B3B3" width="1.2" height="1.2"/>
						<polygon id="polygon209544-4_46_" fill="#999999" points="20.9,69.7 22,69.7 22.6,70.3 20.3,70.3 						"/>
						<polygon id="polygon209546-5_46_" fill="#808080" points="22,69.7 22.6,70.3 22.6,68 22,68.5 						"/>
						<polygon id="polygon209548-0_46_" fill="#CCCCCC" points="22,68.5 22.6,68 20.3,68 20.9,68.5 						"/>
						<polygon id="polygon209550-1_46_" fill="#CCCCCC" points="20.9,69.7 20.9,68.5 20.3,68 20.3,70.3 						"/>
					</g>
				</g>
				<g>
					<circle fill="#B8AF82" cx="157.9" cy="69.1" r="2.3"/>
					<g>
						<rect id="rect209542-3_45_" x="157.3" y="68.5" fill="#B3B3B3" width="1.2" height="1.2"/>
						<polygon id="polygon209544-4_45_" fill="#999999" points="157.3,69.7 158.5,69.7 159,70.3 156.7,70.3 						"/>
						<polygon id="polygon209546-5_45_" fill="#808080" points="158.5,69.7 159,70.3 159,68 158.5,68.5 						"/>
						<polygon id="polygon209548-0_45_" fill="#CCCCCC" points="158.5,68.5 159,68 156.7,68 157.3,68.5 						"/>
						<polygon id="polygon209550-1_45_" fill="#CCCCCC" points="157.3,69.7 157.3,68.5 156.7,68 156.7,70.3 						"/>
					</g>
				</g>
				<g>
					<circle fill="#B8AF82" cx="28.6" cy="69.1" r="2.3"/>
					<g>
						<rect id="rect209542-3_44_" x="28" y="68.5" fill="#B3B3B3" width="1.2" height="1.2"/>
						<polygon id="polygon209544-4_44_" fill="#999999" points="28,69.7 29.2,69.7 29.8,70.3 27.5,70.3 						"/>
						<polygon id="polygon209546-5_44_" fill="#808080" points="29.2,69.7 29.8,70.3 29.8,68 29.2,68.5 						"/>
						<polygon id="polygon209548-0_44_" fill="#CCCCCC" points="29.2,68.5 29.8,68 27.5,68 28,68.5 						"/>
						<polygon id="polygon209550-1_44_" fill="#CCCCCC" points="28,69.7 28,68.5 27.5,68 27.5,70.3 						"/>
					</g>
				</g>
				<g>
					<circle fill="#B8AF82" cx="35.8" cy="69.1" r="2.3"/>
					<g>
						<rect id="rect209542-3_43_" x="35.2" y="68.5" fill="#B3B3B3" width="1.2" height="1.2"/>
						<polygon id="polygon209544-4_43_" fill="#999999" points="35.2,69.7 36.4,69.7 37,70.3 34.7,70.3 						"/>
						<polygon id="polygon209546-5_43_" fill="#808080" points="36.4,69.7 37,70.3 37,68 36.4,68.5 						"/>
						<polygon id="polygon209548-0_43_" fill="#CCCCCC" points="36.4,68.5 37,68 34.7,68 35.2,68.5 						"/>
						<polygon id="polygon209550-1_43_" fill="#CCCCCC" points="35.2,69.7 35.2,68.5 34.7,68 34.7,70.3 						"/>
					</g>
				</g>
				<g>
					<circle fill="#B8AF82" cx="43" cy="69.1" r="2.3"/>
					<g>
						<rect id="rect209542-3_42_" x="42.4" y="68.5" fill="#B3B3B3" width="1.2" height="1.2"/>
						<polygon id="polygon209544-4_42_" fill="#999999" points="42.4,69.7 43.6,69.7 44.1,70.3 41.8,70.3 						"/>
						<polygon id="polygon209546-5_42_" fill="#808080" points="43.6,69.7 44.1,70.3 44.1,68 43.6,68.5 						"/>
						<polygon id="polygon209548-0_42_" fill="#CCCCCC" points="43.6,68.5 44.1,68 41.8,68 42.4,68.5 						"/>
						<polygon id="polygon209550-1_42_" fill="#CCCCCC" points="42.4,69.7 42.4,68.5 41.8,68 41.8,70.3 						"/>
					</g>
				</g>
				<g>
					<circle fill="#B8AF82" cx="50.2" cy="69.1" r="2.3"/>
					<g>
						<rect id="rect209542-3_41_" x="49.6" y="68.5" fill="#B3B3B3" width="1.2" height="1.2"/>
						<polygon id="polygon209544-4_41_" fill="#999999" points="49.6,69.7 50.8,69.7 51.3,70.3 49,70.3 						"/>
						<polygon id="polygon209546-5_41_" fill="#808080" points="50.8,69.7 51.3,70.3 51.3,68 50.8,68.5 						"/>
						<polygon id="polygon209548-0_41_" fill="#CCCCCC" points="50.8,68.5 51.3,68 49,68 49.6,68.5 						"/>
						<polygon id="polygon209550-1_41_" fill="#CCCCCC" points="49.6,69.7 49.6,68.5 49,68 49,70.3 						"/>
					</g>
				</g>
				<g>
					<circle fill="#B8AF82" cx="57.4" cy="69.1" r="2.3"/>
					<g>
						<rect id="rect209542-3_40_" x="56.8" y="68.5" fill="#B3B3B3" width="1.2" height="1.2"/>
						<polygon id="polygon209544-4_40_" fill="#999999" points="56.8,69.7 57.9,69.7 58.5,70.3 56.2,70.3 						"/>
						<polygon id="polygon209546-5_40_" fill="#808080" points="57.9,69.7 58.5,70.3 58.5,68 57.9,68.5 						"/>
						<polygon id="polygon209548-0_40_" fill="#CCCCCC" points="57.9,68.5 58.5,68 56.2,68 56.8,68.5 						"/>
						<polygon id="polygon209550-1_40_" fill="#CCCCCC" points="56.8,69.7 56.8,68.5 56.2,68 56.2,70.3 						"/>
					</g>
				</g>
				<g>
					<circle fill="#B8AF82" cx="64.5" cy="69.1" r="2.3"/>
					<g>
						<rect id="rect209542-3_39_" x="63.9" y="68.5" fill="#B3B3B3" width="1.2" height="1.2"/>
						<polygon id="polygon209544-4_39_" fill="#999999" points="63.9,69.7 65.1,69.7 65.7,70.3 63.4,70.3 						"/>
						<polygon id="polygon209546-5_39_" fill="#808080" points="65.1,69.7 65.7,70.3 65.7,68 65.1,68.5 						"/>
						<polygon id="polygon209548-0_39_" fill="#CCCCCC" points="65.1,68.5 65.7,68 63.4,68 63.9,68.5 						"/>
						<polygon id="polygon209550-1_39_" fill="#CCCCCC" points="63.9,69.7 63.9,68.5 63.4,68 63.4,70.3 						"/>
					</g>
				</g>
				<g>
					<circle fill="#B8AF82" cx="71.7" cy="69.1" r="2.3"/>
					<g>
						<rect id="rect209542-3_38_" x="71.1" y="68.5" fill="#B3B3B3" width="1.2" height="1.2"/>
						<polygon id="polygon209544-4_38_" fill="#999999" points="71.1,69.7 72.3,69.7 72.9,70.3 70.6,70.3 						"/>
						<polygon id="polygon209546-5_38_" fill="#808080" points="72.3,69.7 72.9,70.3 72.9,68 72.3,68.5 						"/>
						<polygon id="polygon209548-0_38_" fill="#CCCCCC" points="72.3,68.5 72.9,68 70.6,68 71.1,68.5 						"/>
						<polygon id="polygon209550-1_38_" fill="#CCCCCC" points="71.1,69.7 71.1,68.5 70.6,68 70.6,70.3 						"/>
					</g>
				</g>
				<g>
					<circle fill="#B8AF82" cx="78.9" cy="69.1" r="2.3"/>
					<g>
						<rect id="rect209542-3_37_" x="78.3" y="68.5" fill="#B3B3B3" width="1.2" height="1.2"/>
						<polygon id="polygon209544-4_37_" fill="#999999" points="78.3,69.7 79.5,69.7 80,70.3 77.7,70.3 						"/>
						<polygon id="polygon209546-5_37_" fill="#808080" points="79.5,69.7 80,70.3 80,68 79.5,68.5 						"/>
						<polygon id="polygon209548-0_37_" fill="#CCCCCC" points="79.5,68.5 80,68 77.7,68 78.3,68.5 						"/>
						<polygon id="polygon209550-1_37_" fill="#CCCCCC" points="78.3,69.7 78.3,68.5 77.7,68 77.7,70.3 						"/>
					</g>
				</g>
				<g>
					<circle fill="#B8AF82" cx="86.1" cy="69.1" r="2.3"/>
					<g>
						<rect id="rect209542-3_36_" x="85.5" y="68.5" fill="#B3B3B3" width="1.2" height="1.2"/>
						<polygon id="polygon209544-4_36_" fill="#999999" points="85.5,69.7 86.7,69.7 87.2,70.3 84.9,70.3 						"/>
						<polygon id="polygon209546-5_36_" fill="#808080" points="86.7,69.7 87.2,70.3 87.2,68 86.7,68.5 						"/>
						<polygon id="polygon209548-0_36_" fill="#CCCCCC" points="86.7,68.5 87.2,68 84.9,68 85.5,68.5 						"/>
						<polygon id="polygon209550-1_36_" fill="#CCCCCC" points="85.5,69.7 85.5,68.5 84.9,68 84.9,70.3 						"/>
					</g>
				</g>
				<g>
					<circle fill="#B8AF82" cx="93.3" cy="69.1" r="2.3"/>
					<g>
						<rect id="rect209542-3_35_" x="92.7" y="68.5" fill="#B3B3B3" width="1.2" height="1.2"/>
						<polygon id="polygon209544-4_35_" fill="#999999" points="92.7,69.7 93.8,69.7 94.4,70.3 92.1,70.3 						"/>
						<polygon id="polygon209546-5_35_" fill="#808080" points="93.8,69.7 94.4,70.3 94.4,68 93.8,68.5 						"/>
						<polygon id="polygon209548-0_35_" fill="#CCCCCC" points="93.8,68.5 94.4,68 92.1,68 92.7,68.5 						"/>
						<polygon id="polygon209550-1_35_" fill="#CCCCCC" points="92.7,69.7 92.7,68.5 92.1,68 92.1,70.3 						"/>
					</g>
				</g>
				<g>
					<circle fill="#B8AF82" cx="100.4" cy="69.1" r="2.3"/>
					<g>
						<rect id="rect209542-3_34_" x="99.8" y="68.5" fill="#B3B3B3" width="1.2" height="1.2"/>
						<polygon id="polygon209544-4_34_" fill="#999999" points="99.9,69.7 101,69.7 101.6,70.3 99.3,70.3 						"/>
						<polygon id="polygon209546-5_34_" fill="#808080" points="101,69.7 101.6,70.3 101.6,68 101,68.5 						"/>
						<polygon id="polygon209548-0_34_" fill="#CCCCCC" points="101,68.5 101.6,68 99.3,68 99.9,68.5 						"/>
						<polygon id="polygon209550-1_34_" fill="#CCCCCC" points="99.9,69.7 99.9,68.5 99.3,68 99.3,70.3 						"/>
					</g>
				</g>
				<g>
					<circle fill="#B8AF82" cx="107.6" cy="69.1" r="2.3"/>
					<g>
						<rect id="rect209542-3_33_" x="107" y="68.5" fill="#B3B3B3" width="1.2" height="1.2"/>
						<polygon id="polygon209544-4_33_" fill="#999999" points="107,69.7 108.2,69.7 108.8,70.3 106.5,70.3 						"/>
						<polygon id="polygon209546-5_33_" fill="#808080" points="108.2,69.7 108.8,70.3 108.8,68 108.2,68.5 						"/>
						<polygon id="polygon209548-0_33_" fill="#CCCCCC" points="108.2,68.5 108.8,68 106.5,68 107,68.5 						"/>
						<polygon id="polygon209550-1_33_" fill="#CCCCCC" points="107,69.7 107,68.5 106.5,68 106.5,70.3 						"/>
					</g>
				</g>
				<g>
					<circle fill="#B8AF82" cx="114.8" cy="69.1" r="2.3"/>
					<g>
						<rect id="rect209542-3_32_" x="114.2" y="68.5" fill="#B3B3B3" width="1.2" height="1.2"/>
						<polygon id="polygon209544-4_32_" fill="#999999" points="114.2,69.7 115.4,69.7 115.9,70.3 113.7,70.3 						"/>
						<polygon id="polygon209546-5_32_" fill="#808080" points="115.4,69.7 115.9,70.3 115.9,68 115.4,68.5 						"/>
						<polygon id="polygon209548-0_32_" fill="#CCCCCC" points="115.4,68.5 115.9,68 113.7,68 114.2,68.5 						"/>
						<polygon id="polygon209550-1_32_" fill="#CCCCCC" points="114.2,69.7 114.2,68.5 113.7,68 113.7,70.3 						"/>
					</g>
				</g>
				<g>
					<circle fill="#B8AF82" cx="122" cy="69.1" r="2.3"/>
					<g>
						<rect id="rect209542-3_31_" x="121.4" y="68.5" fill="#B3B3B3" width="1.2" height="1.2"/>
						<polygon id="polygon209544-4_31_" fill="#999999" points="121.4,69.7 122.6,69.7 123.1,70.3 120.8,70.3 						"/>
						<polygon id="polygon209546-5_31_" fill="#808080" points="122.6,69.7 123.1,70.3 123.1,68 122.6,68.5 						"/>
						<polygon id="polygon209548-0_31_" fill="#CCCCCC" points="122.6,68.5 123.1,68 120.8,68 121.4,68.5 						"/>
						<polygon id="polygon209550-1_31_" fill="#CCCCCC" points="121.4,69.7 121.4,68.5 120.8,68 120.8,70.3 						"/>
					</g>
				</g>
				<g>
					<circle fill="#B8AF82" cx="129.2" cy="69.1" r="2.3"/>
					<g>
						<rect id="rect209542-3_30_" x="128.6" y="68.5" fill="#B3B3B3" width="1.2" height="1.2"/>
						<polygon id="polygon209544-4_30_" fill="#999999" points="128.6,69.7 129.8,69.7 130.3,70.3 128,70.3 						"/>
						<polygon id="polygon209546-5_30_" fill="#808080" points="129.8,69.7 130.3,70.3 130.3,68 129.8,68.5 						"/>
						<polygon id="polygon209548-0_30_" fill="#CCCCCC" points="129.8,68.5 130.3,68 128,68 128.6,68.5 						"/>
						<polygon id="polygon209550-1_30_" fill="#CCCCCC" points="128.6,69.7 128.6,68.5 128,68 128,70.3 						"/>
					</g>
				</g>
				<g>
					<circle fill="#B8AF82" cx="136.3" cy="69.1" r="2.3"/>
					<g>
						<rect id="rect209542-3_29_" x="135.8" y="68.5" fill="#B3B3B3" width="1.2" height="1.2"/>
						<polygon id="polygon209544-4_29_" fill="#999999" points="135.8,69.7 136.9,69.7 137.5,70.3 135.2,70.3 						"/>
						<polygon id="polygon209546-5_29_" fill="#808080" points="136.9,69.7 137.5,70.3 137.5,68 136.9,68.5 						"/>
						<polygon id="polygon209548-0_29_" fill="#CCCCCC" points="136.9,68.5 137.5,68 135.2,68 135.8,68.5 						"/>
						<polygon id="polygon209550-1_29_" fill="#CCCCCC" points="135.8,69.7 135.8,68.5 135.2,68 135.2,70.3 						"/>
					</g>
				</g>
				<g>
					<circle fill="#B8AF82" cx="143.5" cy="69.1" r="2.3"/>
					<g>
						<rect id="rect209542-3_28_" x="142.9" y="68.5" fill="#B3B3B3" width="1.2" height="1.2"/>
						<polygon id="polygon209544-4_28_" fill="#999999" points="142.9,69.7 144.1,69.7 144.7,70.3 142.4,70.3 						"/>
						<polygon id="polygon209546-5_28_" fill="#808080" points="144.1,69.7 144.7,70.3 144.7,68 144.1,68.5 						"/>
						<polygon id="polygon209548-0_28_" fill="#CCCCCC" points="144.1,68.5 144.7,68 142.4,68 142.9,68.5 						"/>
						<polygon id="polygon209550-1_28_" fill="#CCCCCC" points="142.9,69.7 142.9,68.5 142.4,68 142.4,70.3 						"/>
					</g>
				</g>
				<g>
					<circle fill="#B8AF82" cx="150.7" cy="69.1" r="2.3"/>
					<g>
						<rect id="rect209542-3_22_" x="150.1" y="68.5" fill="#B3B3B3" width="1.2" height="1.2"/>
						<polygon id="polygon209544-4_22_" fill="#999999" points="150.1,69.7 151.3,69.7 151.9,70.3 149.6,70.3 						"/>
						<polygon id="polygon209546-5_22_" fill="#808080" points="151.3,69.7 151.9,70.3 151.9,68 151.3,68.5 						"/>
						<polygon id="polygon209548-0_22_" fill="#CCCCCC" points="151.3,68.5 151.9,68 149.6,68 150.1,68.5 						"/>
						<polygon id="polygon209550-1_22_" fill="#CCCCCC" points="150.1,69.7 150.1,68.5 149.6,68 149.6,70.3 						"/>
					</g>
				</g>
			</g>
			<g id="icon_1_">
				<g transform="matrix(1, 0, 0, 1, 100, 118.757)">
					<g>
						<g>
							<rect x="65.8" y="-67.4" fill="#F7BD13" width="0.6" height="2.1"/>
							<rect x="65.8" y="-67.4" fill="#FCE5A1" width="0.6" height="0.1"/>
							<rect x="65.8" y="-65.3" fill="#B98E0E" width="0.6" height="0.1"/>
						</g>
						<rect x="66.2" y="-70.5" fill="#E6E6E6" width="7.9" height="7.9"/>
						<polygon opacity="0.22" fill="#1D1D1B" enable-background="new    " points="74,-70.3 74,-62.6 66.3,-62.6 66.2,-62.6 
							74.1,-62.6 74.1,-70.5 						"/>
						<polygon opacity="0.42" fill="#FFFFFF" enable-background="new    " points="66.3,-62.6 66.3,-70.4 74,-70.4 74.1,-70.5 
							66.2,-70.5 66.2,-62.6 						"/>
						<rect x="72.3" y="-67.4" fill="#F7BD13" width="2.2" height="2.1"/>
						<rect x="72.3" y="-67.4" fill="#FCE5A1" width="2.2" height="0.1"/>
						<rect x="72.3" y="-67.5" opacity="0.22" fill="#1D1D1B" enable-background="new    " width="1.8" height="0.1"/>
						<g>
							<circle opacity="0.12" enable-background="new    " cx="70.2" cy="-66.4" r="2.8"/>
							<circle fill="#FEE068" cx="70.2" cy="-66.5" r="2.8"/>
							<circle opacity="0.49" fill="#FFFFFF" enable-background="new    " cx="70.2" cy="-66.5" r="2.7"/>
							<circle fill="#ECB74D" cx="70.2" cy="-66.5" r="2.7"/>
							<g>
								<g>
									<circle fill="#ECC847" cx="70.2" cy="-66.5" r="0.8"/>
									<path opacity="0.16" fill="#1D1D1B" enable-background="new    " d="M70.9-66.5c0,0.4-0.4,0.8-0.8,0.8v-0.8H70.9z"/>
									<path opacity="0.25" fill="#FFFFFF" enable-background="new    " d="M69.4-66.5c0-0.4,0.4-0.8,0.8-0.8v0.8H69.4z"/>
									<circle fill="#FBC91A" cx="70.2" cy="-66.5" r="0.5"/>
								</g>
							</g>
						</g>
					</g>
				</g>
			</g>
			<g>
				<g>
					<polygon fill="#358E25" points="171.2,16.8 171.7,16.8 172.9,16.8 172.9,8.6 171.2,8.6 167.1,8.6 166.7,8.6 166.7,31 171.1,31 
						171.1,16.8 					"/>
				</g>
				<g>
					<rect x="171.1" y="16.7" fill="#E6E6E6" width="3.4" height="5.8"/>
					<rect x="171.1" y="17.6" fill="#4D4D4D" width="3.4" height="4"/>
				</g>
			</g>
		</g>
		<g transform="matrix(1, 0, 0, 1, 3.79616, 7.73856)">
			<g>
				<g transform="matrix(0.5, 0, 0, 0.5, 3.40384, 3.33071)">
					<g>
						<g>
							<g>
								<rect x="56.6" y="18.9" fill="#A7A9AC" width="2.2" height="6.5"/>
								<rect x="66.5" y="18.9" fill="#A7A9AC" width="2.2" height="6.5"/>
								<rect x="76.4" y="18.9" fill="#A7A9AC" width="2.2" height="6.5"/>
							</g>
							<g>
								<g>
									<rect x="56.6" y="0" fill="#A7A9AC" width="2.2" height="6.5"/>
									<rect x="66.5" y="0" fill="#A7A9AC" width="2.2" height="6.5"/>
									<rect x="76.4" y="0" fill="#A7A9AC" width="2.2" height="6.5"/>
								</g>
							</g>
						</g>
						<rect x="62.2" y="11.4" fill="#A7A9AC" width="10.8" height="10.8"/>
						<g>
							<rect x="54.7" y="5.1" fill="#303030" width="25.9" height="15.1"/>
							<polygon fill="#3D3D3D" points="54.7,5.1 80.6,5.1 79.2,6.5 56,6.5 							"/>
							<polygon points="54.7,20.2 80.6,20.2 79.2,18.9 56,18.9 							"/>
							<polygon fill="#3D3D3D" points="54.7,5.1 54.7,20.2 56,18.9 56,6.5 							"/>
							<polygon points="80.6,5.1 80.6,20.2 79.2,18.9 79.2,6.5 							"/>
							<circle fill="#1F1F1F" cx="67.6" cy="12.9" r="2.9"/>
						</g>
					</g>
				</g>
			</g>
		</g>
		<g>
			<g>
				<g>
					<rect x="38.7" y="34.7" fill="#A7A9AC" width="2.5" height="1.1"/>
					<rect x="38.7" y="28.3" fill="#A7A9AC" width="2.5" height="1.1"/>
				</g>
				<rect x="32.3" y="31.5" fill="#A7A9AC" width="1.8" height="1.1"/>
				<g>
					<g>
						<rect x="34.3" y="27.9" fill="#303030" width="4.2" height="8.2"/>
						<polygon points="34.8,35.7 34.3,36.2 38.5,36.2 38.5,36.2 38,35.7 						"/>
						<polygon fill="#3D3D3D" points="34.8,28.4 34.3,27.9 34.3,36.2 34.8,35.7 						"/>
						<polygon fill="#3D3D3D" points="34.8,28.4 34.3,27.9 38.5,27.9 38.5,27.9 38,28.4 						"/>
						<polygon points="38,35.7 38.5,36.2 38.5,27.9 38,28.4 						"/>
					</g>
					<circle fill="#1F1F1F" cx="37.5" cy="35.3" r="0.2"/>
				</g>
			</g>
			<g>
				<g>
					<rect x="41.6" y="34.7" fill="#A7A9AC" width="2.5" height="1.1"/>
					<rect x="41.6" y="28.3" fill="#A7A9AC" width="2.5" height="1.1"/>
				</g>
				<rect x="48.6" y="31.5" fill="#A7A9AC" width="1.8" height="1.1"/>
				<g>
					<g>
						<rect x="44.3" y="27.9" fill="#303030" width="4.2" height="8.2"/>
						<polygon points="47.9,35.7 48.4,36.2 44.3,36.2 44.3,36.2 44.8,35.7 						"/>
						<polygon points="47.9,28.4 48.4,27.9 48.4,36.2 47.9,35.7 						"/>
						<polygon fill="#3D3D3D" points="47.9,28.4 48.4,27.9 44.3,27.9 44.3,27.9 44.8,28.4 						"/>
						<polygon fill="#3D3D3D" points="44.8,35.7 44.3,36.2 44.3,27.9 44.8,28.4 						"/>
					</g>
					<circle fill="#1F1F1F" cx="45.2" cy="28.9" r="0.2"/>
				</g>
			</g>
			<g>
				<g>
					<rect x="41.6" y="44.2" fill="#A7A9AC" width="2.5" height="1.1"/>
					<rect x="41.6" y="37.8" fill="#A7A9AC" width="2.5" height="1.1"/>
				</g>
				<rect x="48.6" y="41" fill="#A7A9AC" width="1.8" height="1.1"/>
				<g>
					<g>
						<rect x="44.3" y="37.4" fill="#303030" width="4.2" height="8.2"/>
						<polygon points="47.9,45.2 48.4,45.7 44.3,45.7 44.3,45.7 44.8,45.2 						"/>
						<polygon points="47.9,37.9 48.4,37.4 48.4,45.7 47.9,45.2 						"/>
						<polygon fill="#3D3D3D" points="47.9,37.9 48.4,37.4 44.3,37.4 44.3,37.4 44.8,37.9 						"/>
						<polygon fill="#3D3D3D" points="44.8,45.2 44.3,45.7 44.3,37.4 44.8,37.9 						"/>
					</g>
					<circle fill="#1F1F1F" cx="45.2" cy="38.4" r="0.2"/>
				</g>
			</g>
			<g>
				<g>
					<rect x="41.6" y="53.7" fill="#A7A9AC" width="2.5" height="1.1"/>
					<rect x="41.6" y="47.3" fill="#A7A9AC" width="2.5" height="1.1"/>
				</g>
				<rect x="48.6" y="50.5" fill="#A7A9AC" width="1.8" height="1.1"/>
				<g>
					<g>
						<rect x="44.3" y="46.9" fill="#303030" width="4.2" height="8.2"/>
						<polygon points="47.9,54.7 48.4,55.2 44.3,55.2 44.3,55.2 44.8,54.7 						"/>
						<polygon points="47.9,47.4 48.4,46.9 48.4,55.2 47.9,54.7 						"/>
						<polygon fill="#3D3D3D" points="47.9,47.4 48.4,46.9 44.3,46.9 44.3,46.9 44.8,47.4 						"/>
						<polygon fill="#3D3D3D" points="44.8,54.7 44.3,55.2 44.3,46.9 44.8,47.4 						"/>
					</g>
					<circle fill="#1F1F1F" cx="45.2" cy="47.9" r="0.2"/>
				</g>
			</g>
			<g>
				<g>
					<rect x="41.6" y="63.2" fill="#A7A9AC" width="2.5" height="1.1"/>
					<rect x="41.6" y="56.8" fill="#A7A9AC" width="2.5" height="1.1"/>
				</g>
				<rect x="48.6" y="60" fill="#A7A9AC" width="1.8" height="1.1"/>
				<g>
					<g>
						<rect x="44.3" y="56.4" fill="#303030" width="4.2" height="8.2"/>
						<polygon points="47.9,64.2 48.4,64.7 44.3,64.7 44.3,64.7 44.8,64.2 						"/>
						<polygon points="47.9,56.9 48.4,56.4 48.4,64.7 47.9,64.2 						"/>
						<polygon fill="#3D3D3D" points="47.9,56.9 48.4,56.4 44.3,56.4 44.3,56.4 44.8,56.9 						"/>
						<polygon fill="#3D3D3D" points="44.8,64.2 44.3,64.7 44.3,56.4 44.8,56.9 						"/>
					</g>
					<circle fill="#1F1F1F" cx="45.2" cy="57.4" r="0.2"/>
				</g>
			</g>
			<g>
				<g>
					<rect x="38.7" y="44.2" fill="#A7A9AC" width="2.5" height="1.1"/>
					<rect x="38.7" y="37.8" fill="#A7A9AC" width="2.5" height="1.1"/>
				</g>
				<rect x="32.3" y="41" fill="#A7A9AC" width="1.8" height="1.1"/>
				<g>
					<g>
						<rect x="34.3" y="37.4" fill="#303030" width="4.2" height="8.2"/>
						<polygon points="34.8,45.2 34.3,45.7 38.5,45.7 38.5,45.7 38,45.2 						"/>
						<polygon fill="#3D3D3D" points="34.8,37.9 34.3,37.4 34.3,45.7 34.8,45.2 						"/>
						<polygon fill="#3D3D3D" points="34.8,37.9 34.3,37.4 38.5,37.4 38.5,37.4 38,37.9 						"/>
						<polygon points="38,45.2 38.5,45.7 38.5,37.4 38,37.9 						"/>
					</g>
					<circle fill="#1F1F1F" cx="37.5" cy="44.8" r="0.2"/>
				</g>
			</g>
			<g>
				<g>
					<rect x="38.7" y="53.7" fill="#A7A9AC" width="2.5" height="1.1"/>
					<rect x="38.7" y="47.3" fill="#A7A9AC" width="2.5" height="1.1"/>
				</g>
				<rect x="32.3" y="50.5" fill="#A7A9AC" width="1.8" height="1.1"/>
				<g>
					<g>
						<rect x="34.3" y="46.9" fill="#303030" width="4.2" height="8.2"/>
						<polygon points="34.8,54.7 34.3,55.2 38.5,55.2 38.5,55.2 38,54.7 						"/>
						<polygon fill="#3D3D3D" points="34.8,47.4 34.3,46.9 34.3,55.2 34.8,54.7 						"/>
						<polygon fill="#3D3D3D" points="34.8,47.4 34.3,46.9 38.5,46.9 38.5,46.9 38,47.4 						"/>
						<polygon points="38,54.7 38.5,55.2 38.5,46.9 38,47.4 						"/>
					</g>
					<circle fill="#1F1F1F" cx="37.5" cy="54.3" r="0.2"/>
				</g>
			</g>
		</g>
		<g>
			<g>
				<rect x="34.7" y="57.5" fill="#CCCCCC" width="2.9" height="6.2"/>
				<rect x="35" y="57.9" fill="#F1F2F2" width="2.2" height="5.4"/>
				<rect x="35" y="59.3" fill="#F7E8AD" width="2.2" height="2.6"/>
			</g>
			<g>
				<text transform="matrix(0 1 -1 0 38.1325 57.6635)" fill="#FFFFFF" font-family="'OCRA'" font-size="2.72px">D13</text>
			</g>
		</g>
	</g>
</g>
</svg>
