<?xml version="1.0" encoding="utf-8"?>
<!-- Generator: Adobe Illustrator 19.1.0, SVG Export Plug-In . SVG Version: 6.00 Build 0)  -->
<!DOCTYPE svg PUBLIC "-//W3C//DTD SVG 1.1//EN" "http://www.w3.org/Graphics/SVG/1.1/DTD/svg11.dtd">
<svg version="1.1" id="_x37_688duo" xmlns="http://www.w3.org/2000/svg" xmlns:xlink="http://www.w3.org/1999/xlink" x="0px"
	 y="0px" width="161.3px" height="73.7px" viewBox="0 0 161.3 73.7" enable-background="new 0 0 161.3 73.7" xml:space="preserve">
<g>
	<path fill="#44AF35" d="M148.3,73.7H3.4V0h157.9v60.7C156.3,65.8,153.4,68.6,148.3,73.7z"/>
	<g>
		<g>
			<g>
				<text transform="matrix(0 1 -1 0 131.802 2.4039)" fill="#FFFFFF" font-family="'OCRA'" font-size="2.7196px">P1</text>
				<text transform="matrix(0 1 -1 0 16.9163 1.7164)" fill="#FFFFFF" font-family="'OCRA'" font-size="2.7196px">P13</text>
				<text transform="matrix(0 1 -1 0 24.1116 1.7164)" fill="#FFFFFF" font-family="'OCRA'" font-size="2.7196px">P12</text>
				<text transform="matrix(0 1 -1 0 45.6194 2.6891)" fill="#FFFFFF" font-family="'OCRA'" font-size="2.7196px">5V</text>
				<text transform="matrix(0 1 -1 0 52.8006 1.7164)" fill="#FFFFFF" font-family="'OCRA'" font-size="2.7196px">VCC</text>
				<text transform="matrix(0 1 -1 0 74.3137 2.6891)" fill="#FFFFFF" font-family="'OCRA'" font-size="2.7196px">P9</text>
				<text transform="matrix(0 1 -1 0 81.5242 2.6891)" fill="#FFFFFF" font-family="'OCRA'" font-size="2.7196px">P8</text>
				<text transform="matrix(0 1 -1 0 103.0647 2.6891)" fill="#FFFFFF" font-family="'OCRA'" font-size="2.7196px">P5</text>
				<text transform="matrix(0 1 -1 0 110.26 2.6891)" fill="#FFFFFF" font-family="'OCRA'" font-size="2.7196px">P4</text>
				<text transform="matrix(0 1 -1 0 138.969 2.3893)" fill="#FFFFFF" font-family="'OCRA'" font-size="2.7196px">P0</text>
				<text transform="matrix(0 1 -1 0 31.2776 1.7164)" fill="#FFFFFF" font-family="'OCRA'" font-size="2.7196px">P11</text>
				<text transform="matrix(0 1 -1 0 38.4588 1.7164)" fill="#FFFFFF" font-family="'OCRA'" font-size="2.7196px">P10</text>
				<text transform="matrix(0 1 -1 0 67.303 1.7164)" fill="#FFFFFF" font-family="'OCRA'" font-size="2.7196px">GND</text>
				<text transform="matrix(0 1 -1 0 60.0237 1.7164)" fill="#FFFFFF" font-family="'OCRA'" font-size="2.7196px">3V3</text>
				<text transform="matrix(0 1 -1 0 88.718 2.6891)" fill="#FFFFFF" font-family="'OCRA'" font-size="2.7196px">P7</text>
				<text transform="matrix(0 1 -1 0 95.884 2.6891)" fill="#FFFFFF" font-family="'OCRA'" font-size="2.7196px">P6</text>
				<text transform="matrix(0 1 -1 0 117.4114 2.6891)" fill="#FFFFFF" font-family="'OCRA'" font-size="2.7196px">P3</text>
				<text transform="matrix(0 1 -1 0 124.6067 2.6891)" fill="#FFFFFF" font-family="'OCRA'" font-size="2.7196px">P2</text>
			</g>
			<g>
				<text transform="matrix(0 1 -1 0 131.5804 66.2164)" fill="#FFFFFF" font-family="'OCRA'" font-size="2.7196px">P15</text>
				<text transform="matrix(0 1 -1 0 16.6946 66.2157)" fill="#FFFFFF" font-family="'OCRA'" font-size="2.7196px">P31</text>
				<text transform="matrix(0 1 -1 0 23.8899 66.2157)" fill="#FFFFFF" font-family="'OCRA'" font-size="2.7196px">P30</text>
				<text transform="matrix(0 1 -1 0 45.3977 66.2164)" fill="#FFFFFF" font-family="'OCRA'" font-size="2.7196px">P27</text>
				<text transform="matrix(0 1 -1 0 52.5789 66.2164)" fill="#FFFFFF" font-family="'OCRA'" font-size="2.7196px">P26</text>
				<text transform="matrix(0 1 -1 0 74.0921 66.2164)" fill="#FFFFFF" font-family="'OCRA'" font-size="2.7196px">P23</text>
				<text transform="matrix(0 1 -1 0 81.3025 66.2164)" fill="#FFFFFF" font-family="'OCRA'" font-size="2.7196px">P22</text>
				<text transform="matrix(0 1 -1 0 102.843 66.2164)" fill="#FFFFFF" font-family="'OCRA'" font-size="2.7196px">P19</text>
				<text transform="matrix(0 1 -1 0 110.0384 66.2164)" fill="#FFFFFF" font-family="'OCRA'" font-size="2.7196px">P18</text>
				<text transform="matrix(0 1 -1 0 138.7473 66.2164)" fill="#FFFFFF" font-family="'OCRA'" font-size="2.7196px">P14</text>
				<text transform="matrix(0 1 -1 0 31.0559 66.2157)" fill="#FFFFFF" font-family="'OCRA'" font-size="2.7196px">P29</text>
				<text transform="matrix(0 1 -1 0 38.2371 66.2157)" fill="#FFFFFF" font-family="'OCRA'" font-size="2.7196px">P28</text>
				<text transform="matrix(0 1 -1 0 67.0813 66.2164)" fill="#FFFFFF" font-family="'OCRA'" font-size="2.7196px">P24</text>
				<text transform="matrix(0 1 -1 0 59.802 66.2164)" fill="#FFFFFF" font-family="'OCRA'" font-size="2.7196px">P25</text>
				<text transform="matrix(0 1 -1 0 88.4964 66.2164)" fill="#FFFFFF" font-family="'OCRA'" font-size="2.7196px">P21</text>
				<text transform="matrix(0 1 -1 0 95.6624 66.2164)" fill="#FFFFFF" font-family="'OCRA'" font-size="2.7196px">P20</text>
				<text transform="matrix(0 1 -1 0 117.1897 66.2164)" fill="#FFFFFF" font-family="'OCRA'" font-size="2.7196px">P17</text>
				<text transform="matrix(0 1 -1 0 124.385 66.2164)" fill="#FFFFFF" font-family="'OCRA'" font-size="2.7196px">P16</text>
			</g>
			<g>
				<g>
					<circle fill="#B8AF82" cx="21.4" cy="4.6" r="2.3"/>
					<g>
						<rect id="rect209542-3_112_" x="20.8" y="4" fill="#B3B3B3" width="1.2" height="1.2"/>
						<polygon id="polygon209544-4_112_" fill="#999999" points="20.8,5.2 22,5.2 22.5,5.8 20.2,5.8 						"/>
						<polygon id="polygon209546-5_112_" fill="#808080" points="22,5.2 22.5,5.8 22.5,3.5 22,4 						"/>
						<polygon id="polygon209548-0_112_" fill="#CCCCCC" points="22,4 22.5,3.5 20.2,3.5 20.8,4 						"/>
						<polygon id="polygon209550-1_112_" fill="#CCCCCC" points="20.8,5.2 20.8,4 20.2,3.5 20.2,5.8 						"/>
					</g>
				</g>
				<g>
					<circle fill="#B8AF82" cx="28.6" cy="4.6" r="2.3"/>
					<g>
						<rect id="rect209542-3_111_" x="28" y="4" fill="#B3B3B3" width="1.2" height="1.2"/>
						<polygon id="polygon209544-4_111_" fill="#999999" points="28,5.2 29.2,5.2 29.7,5.8 27.4,5.8 						"/>
						<polygon id="polygon209546-5_111_" fill="#808080" points="29.2,5.2 29.7,5.8 29.7,3.5 29.2,4 						"/>
						<polygon id="polygon209548-0_111_" fill="#CCCCCC" points="29.2,4 29.7,3.5 27.4,3.5 28,4 						"/>
						<polygon id="polygon209550-1_111_" fill="#CCCCCC" points="28,5.2 28,4 27.4,3.5 27.4,5.8 						"/>
					</g>
				</g>
				<g>
					<circle fill="#B8AF82" cx="35.8" cy="4.6" r="2.3"/>
					<g>
						<rect id="rect209542-3_110_" x="35.2" y="4" fill="#B3B3B3" width="1.2" height="1.2"/>
						<polygon id="polygon209544-4_110_" fill="#999999" points="35.2,5.2 36.3,5.2 36.9,5.8 34.6,5.8 						"/>
						<polygon id="polygon209546-5_110_" fill="#808080" points="36.3,5.2 36.9,5.8 36.9,3.5 36.3,4 						"/>
						<polygon id="polygon209548-0_110_" fill="#CCCCCC" points="36.3,4 36.9,3.5 34.6,3.5 35.2,4 						"/>
						<polygon id="polygon209550-1_110_" fill="#CCCCCC" points="35.2,5.2 35.2,4 34.6,3.5 34.6,5.8 						"/>
					</g>
				</g>
				<g>
					<circle fill="#B8AF82" cx="42.9" cy="4.6" r="2.3"/>
					<g>
						<rect id="rect209542-3_109_" x="42.3" y="4" fill="#B3B3B3" width="1.2" height="1.2"/>
						<polygon id="polygon209544-4_109_" fill="#999999" points="42.3,5.2 43.5,5.2 44.1,5.8 41.8,5.8 						"/>
						<polygon id="polygon209546-5_109_" fill="#808080" points="43.5,5.2 44.1,5.8 44.1,3.5 43.5,4 						"/>
						<polygon id="polygon209548-0_109_" fill="#CCCCCC" points="43.5,4 44.1,3.5 41.8,3.5 42.3,4 						"/>
						<polygon id="polygon209550-1_109_" fill="#CCCCCC" points="42.3,5.2 42.3,4 41.8,3.5 41.8,5.8 						"/>
					</g>
				</g>
				<g>
					<circle fill="#B8AF82" cx="50.1" cy="4.6" r="2.3"/>
					<g>
						<rect id="rect209542-3_108_" x="49.5" y="4" fill="#B3B3B3" width="1.2" height="1.2"/>
						<polygon id="polygon209544-4_108_" fill="#999999" points="49.5,5.2 50.7,5.2 51.3,5.8 49,5.8 						"/>
						<polygon id="polygon209546-5_108_" fill="#808080" points="50.7,5.2 51.3,5.8 51.3,3.5 50.7,4 						"/>
						<polygon id="polygon209548-0_108_" fill="#CCCCCC" points="50.7,4 51.3,3.5 49,3.5 49.5,4 						"/>
						<polygon id="polygon209550-1_108_" fill="#CCCCCC" points="49.5,5.2 49.5,4 49,3.5 49,5.8 						"/>
					</g>
				</g>
				<g>
					<circle fill="#B8AF82" cx="57.3" cy="4.6" r="2.3"/>
					<g>
						<rect id="rect209542-3_107_" x="56.7" y="4" fill="#B3B3B3" width="1.2" height="1.2"/>
						<polygon id="polygon209544-4_107_" fill="#999999" points="56.7,5.2 57.9,5.2 58.4,5.8 56.1,5.8 						"/>
						<polygon id="polygon209546-5_107_" fill="#808080" points="57.9,5.2 58.4,5.8 58.4,3.5 57.9,4 						"/>
						<polygon id="polygon209548-0_107_" fill="#CCCCCC" points="57.9,4 58.4,3.5 56.1,3.5 56.7,4 						"/>
						<polygon id="polygon209550-1_107_" fill="#CCCCCC" points="56.7,5.2 56.7,4 56.1,3.5 56.1,5.8 						"/>
					</g>
				</g>
				<g>
					<circle fill="#B8AF82" cx="64.5" cy="4.6" r="2.3"/>
					<g>
						<rect id="rect209542-3_106_" x="63.9" y="4" fill="#B3B3B3" width="1.2" height="1.2"/>
						<polygon id="polygon209544-4_106_" fill="#999999" points="63.9,5.2 65.1,5.2 65.6,5.8 63.3,5.8 						"/>
						<polygon id="polygon209546-5_106_" fill="#808080" points="65.1,5.2 65.6,5.8 65.6,3.5 65.1,4 						"/>
						<polygon id="polygon209548-0_106_" fill="#CCCCCC" points="65.1,4 65.6,3.5 63.3,3.5 63.9,4 						"/>
						<polygon id="polygon209550-1_106_" fill="#CCCCCC" points="63.9,5.2 63.9,4 63.3,3.5 63.3,5.8 						"/>
					</g>
				</g>
				<g>
					<circle fill="#B8AF82" cx="71.7" cy="4.6" r="2.3"/>
					<g>
						<rect id="rect209542-3_105_" x="71.1" y="4" fill="#B3B3B3" width="1.2" height="1.2"/>
						<polygon id="polygon209544-4_105_" fill="#999999" points="71.1,5.2 72.2,5.2 72.8,5.8 70.5,5.8 						"/>
						<polygon id="polygon209546-5_105_" fill="#808080" points="72.2,5.2 72.8,5.8 72.8,3.5 72.2,4 						"/>
						<polygon id="polygon209548-0_105_" fill="#CCCCCC" points="72.2,4 72.8,3.5 70.5,3.5 71.1,4 						"/>
						<polygon id="polygon209550-1_105_" fill="#CCCCCC" points="71.1,5.2 71.1,4 70.5,3.5 70.5,5.8 						"/>
					</g>
				</g>
				<g>
					<circle fill="#B8AF82" cx="78.8" cy="4.6" r="2.3"/>
					<g>
						<rect id="rect209542-3_104_" x="78.2" y="4" fill="#B3B3B3" width="1.2" height="1.2"/>
						<polygon id="polygon209544-4_104_" fill="#999999" points="78.2,5.2 79.4,5.2 80,5.8 77.7,5.8 						"/>
						<polygon id="polygon209546-5_104_" fill="#808080" points="79.4,5.2 80,5.8 80,3.5 79.4,4 						"/>
						<polygon id="polygon209548-0_104_" fill="#CCCCCC" points="79.4,4 80,3.5 77.7,3.5 78.2,4 						"/>
						<polygon id="polygon209550-1_104_" fill="#CCCCCC" points="78.2,5.2 78.2,4 77.7,3.5 77.7,5.8 						"/>
					</g>
				</g>
				<g>
					<circle fill="#B8AF82" cx="86" cy="4.6" r="2.3"/>
					<g>
						<rect id="rect209542-3_103_" x="85.4" y="4" fill="#B3B3B3" width="1.2" height="1.2"/>
						<polygon id="polygon209544-4_103_" fill="#999999" points="85.4,5.2 86.6,5.2 87.2,5.8 84.9,5.8 						"/>
						<polygon id="polygon209546-5_103_" fill="#808080" points="86.6,5.2 87.2,5.8 87.2,3.5 86.6,4 						"/>
						<polygon id="polygon209548-0_103_" fill="#CCCCCC" points="86.6,4 87.2,3.5 84.9,3.5 85.4,4 						"/>
						<polygon id="polygon209550-1_103_" fill="#CCCCCC" points="85.4,5.2 85.4,4 84.9,3.5 84.9,5.8 						"/>
					</g>
				</g>
				<g>
					<circle fill="#B8AF82" cx="93.2" cy="4.6" r="2.3"/>
					<g>
						<rect id="rect209542-3_102_" x="92.6" y="4" fill="#B3B3B3" width="1.2" height="1.2"/>
						<polygon id="polygon209544-4_102_" fill="#999999" points="92.6,5.2 93.8,5.2 94.3,5.8 92.1,5.8 						"/>
						<polygon id="polygon209546-5_102_" fill="#808080" points="93.8,5.2 94.3,5.8 94.3,3.5 93.8,4 						"/>
						<polygon id="polygon209548-0_102_" fill="#CCCCCC" points="93.8,4 94.3,3.5 92.1,3.5 92.6,4 						"/>
						<polygon id="polygon209550-1_102_" fill="#CCCCCC" points="92.6,5.2 92.6,4 92.1,3.5 92.1,5.8 						"/>
					</g>
				</g>
				<g>
					<circle fill="#B8AF82" cx="100.4" cy="4.6" r="2.3"/>
					<g>
						<rect id="rect209542-3_101_" x="99.8" y="4" fill="#B3B3B3" width="1.2" height="1.2"/>
						<polygon id="polygon209544-4_101_" fill="#999999" points="99.8,5.2 101,5.2 101.5,5.8 99.2,5.8 						"/>
						<polygon id="polygon209546-5_101_" fill="#808080" points="101,5.2 101.5,5.8 101.5,3.5 101,4 						"/>
						<polygon id="polygon209548-0_101_" fill="#CCCCCC" points="101,4 101.5,3.5 99.2,3.5 99.8,4 						"/>
						<polygon id="polygon209550-1_101_" fill="#CCCCCC" points="99.8,5.2 99.8,4 99.2,3.5 99.2,5.8 						"/>
					</g>
				</g>
				<g>
					<circle fill="#B8AF82" cx="107.6" cy="4.6" r="2.3"/>
					<g>
						<rect id="rect209542-3_100_" x="107" y="4" fill="#B3B3B3" width="1.2" height="1.2"/>
						<polygon id="polygon209544-4_100_" fill="#999999" points="107,5.2 108.1,5.2 108.7,5.8 106.4,5.8 						"/>
						<polygon id="polygon209546-5_100_" fill="#808080" points="108.1,5.2 108.7,5.8 108.7,3.5 108.1,4 						"/>
						<polygon id="polygon209548-0_100_" fill="#CCCCCC" points="108.1,4 108.7,3.5 106.4,3.5 107,4 						"/>
						<polygon id="polygon209550-1_100_" fill="#CCCCCC" points="107,5.2 107,4 106.4,3.5 106.4,5.8 						"/>
					</g>
				</g>
				<g>
					<circle fill="#B8AF82" cx="114.7" cy="4.6" r="2.3"/>
					<g>
						<rect id="rect209542-3_99_" x="114.2" y="4" fill="#B3B3B3" width="1.2" height="1.2"/>
						<polygon id="polygon209544-4_99_" fill="#999999" points="114.2,5.2 115.3,5.2 115.9,5.8 113.6,5.8 						"/>
						<polygon id="polygon209546-5_99_" fill="#808080" points="115.3,5.2 115.9,5.8 115.9,3.5 115.3,4 						"/>
						<polygon id="polygon209548-0_99_" fill="#CCCCCC" points="115.3,4 115.9,3.5 113.6,3.5 114.2,4 						"/>
						<polygon id="polygon209550-1_99_" fill="#CCCCCC" points="114.2,5.2 114.2,4 113.6,3.5 113.6,5.8 						"/>
					</g>
				</g>
				<g>
					<circle fill="#B8AF82" cx="121.9" cy="4.6" r="2.3"/>
					<g>
						<rect id="rect209542-3_98_" x="121.3" y="4" fill="#B3B3B3" width="1.2" height="1.2"/>
						<polygon id="polygon209544-4_98_" fill="#999999" points="121.3,5.2 122.5,5.2 123.1,5.8 120.8,5.8 						"/>
						<polygon id="polygon209546-5_98_" fill="#808080" points="122.5,5.2 123.1,5.8 123.1,3.5 122.5,4 						"/>
						<polygon id="polygon209548-0_98_" fill="#CCCCCC" points="122.5,4 123.1,3.5 120.8,3.5 121.3,4 						"/>
						<polygon id="polygon209550-1_98_" fill="#CCCCCC" points="121.3,5.2 121.3,4 120.8,3.5 120.8,5.8 						"/>
					</g>
				</g>
				<g>
					<circle fill="#B8AF82" cx="129.1" cy="4.6" r="2.3"/>
					<g>
						<rect id="rect209542-3_97_" x="128.5" y="4" fill="#B3B3B3" width="1.2" height="1.2"/>
						<polygon id="polygon209544-4_97_" fill="#999999" points="128.5,5.2 129.7,5.2 130.3,5.8 128,5.8 						"/>
						<polygon id="polygon209546-5_97_" fill="#808080" points="129.7,5.2 130.3,5.8 130.3,3.5 129.7,4 						"/>
						<polygon id="polygon209548-0_97_" fill="#CCCCCC" points="129.7,4 130.3,3.5 128,3.5 128.5,4 						"/>
						<polygon id="polygon209550-1_97_" fill="#CCCCCC" points="128.5,5.2 128.5,4 128,3.5 128,5.8 						"/>
					</g>
				</g>
				<g>
					<circle fill="#B8AF82" cx="136.3" cy="4.6" r="2.3"/>
					<g>
						<rect id="rect209542-3_96_" x="135.7" y="4" fill="#B3B3B3" width="1.2" height="1.2"/>
						<polygon id="polygon209544-4_96_" fill="#999999" points="135.7,5.2 136.9,5.2 137.4,5.8 135.1,5.8 						"/>
						<polygon id="polygon209546-5_96_" fill="#808080" points="136.9,5.2 137.4,5.8 137.4,3.5 136.9,4 						"/>
						<polygon id="polygon209548-0_96_" fill="#CCCCCC" points="136.9,4 137.4,3.5 135.1,3.5 135.7,4 						"/>
						<polygon id="polygon209550-1_96_" fill="#CCCCCC" points="135.7,5.2 135.7,4 135.1,3.5 135.1,5.8 						"/>
					</g>
				</g>
				<g>
					<circle fill="#B8AF82" cx="143.5" cy="4.6" r="2.3"/>
					<g>
						<rect id="rect209542-3_95_" x="142.9" y="4" fill="#B3B3B3" width="1.2" height="1.2"/>
						<polygon id="polygon209544-4_95_" fill="#999999" points="142.9,5.2 144.1,5.2 144.6,5.8 142.3,5.8 						"/>
						<polygon id="polygon209546-5_95_" fill="#808080" points="144.1,5.2 144.6,5.8 144.6,3.5 144.1,4 						"/>
						<polygon id="polygon209548-0_95_" fill="#CCCCCC" points="144.1,4 144.6,3.5 142.3,3.5 142.9,4 						"/>
						<polygon id="polygon209550-1_95_" fill="#CCCCCC" points="142.9,5.2 142.9,4 142.3,3.5 142.3,5.8 						"/>
					</g>
				</g>
			</g>
			<g>
				<g>
					<circle fill="#B8AF82" cx="21.4" cy="69.1" r="2.3"/>
					<g>
						<rect id="rect209542-3_94_" x="20.8" y="68.5" fill="#B3B3B3" width="1.2" height="1.2"/>
						<polygon id="polygon209544-4_94_" fill="#999999" points="20.8,69.7 22,69.7 22.5,70.3 20.2,70.3 						"/>
						<polygon id="polygon209546-5_94_" fill="#808080" points="22,69.7 22.5,70.3 22.5,68 22,68.5 						"/>
						<polygon id="polygon209548-0_94_" fill="#CCCCCC" points="22,68.5 22.5,68 20.2,68 20.8,68.5 						"/>
						<polygon id="polygon209550-1_94_" fill="#CCCCCC" points="20.8,69.7 20.8,68.5 20.2,68 20.2,70.3 						"/>
					</g>
				</g>
				<g>
					<circle fill="#B8AF82" cx="28.6" cy="69.1" r="2.3"/>
					<g>
						<rect id="rect209542-3_93_" x="28" y="68.5" fill="#B3B3B3" width="1.2" height="1.2"/>
						<polygon id="polygon209544-4_93_" fill="#999999" points="28,69.7 29.2,69.7 29.7,70.3 27.4,70.3 						"/>
						<polygon id="polygon209546-5_93_" fill="#808080" points="29.2,69.7 29.7,70.3 29.7,68 29.2,68.5 						"/>
						<polygon id="polygon209548-0_93_" fill="#CCCCCC" points="29.2,68.5 29.7,68 27.4,68 28,68.5 						"/>
						<polygon id="polygon209550-1_93_" fill="#CCCCCC" points="28,69.7 28,68.5 27.4,68 27.4,70.3 						"/>
					</g>
				</g>
				<g>
					<circle fill="#B8AF82" cx="35.8" cy="69.1" r="2.3"/>
					<g>
						<rect id="rect209542-3_92_" x="35.2" y="68.5" fill="#B3B3B3" width="1.2" height="1.2"/>
						<polygon id="polygon209544-4_92_" fill="#999999" points="35.2,69.7 36.3,69.7 36.9,70.3 34.6,70.3 						"/>
						<polygon id="polygon209546-5_92_" fill="#808080" points="36.3,69.7 36.9,70.3 36.9,68 36.3,68.5 						"/>
						<polygon id="polygon209548-0_92_" fill="#CCCCCC" points="36.3,68.5 36.9,68 34.6,68 35.2,68.5 						"/>
						<polygon id="polygon209550-1_92_" fill="#CCCCCC" points="35.2,69.7 35.2,68.5 34.6,68 34.6,70.3 						"/>
					</g>
				</g>
				<g>
					<circle fill="#B8AF82" cx="42.9" cy="69.1" r="2.3"/>
					<g>
						<rect id="rect209542-3_91_" x="42.3" y="68.5" fill="#B3B3B3" width="1.2" height="1.2"/>
						<polygon id="polygon209544-4_91_" fill="#999999" points="42.3,69.7 43.5,69.7 44.1,70.3 41.8,70.3 						"/>
						<polygon id="polygon209546-5_91_" fill="#808080" points="43.5,69.7 44.1,70.3 44.1,68 43.5,68.5 						"/>
						<polygon id="polygon209548-0_91_" fill="#CCCCCC" points="43.5,68.5 44.1,68 41.8,68 42.3,68.5 						"/>
						<polygon id="polygon209550-1_91_" fill="#CCCCCC" points="42.3,69.7 42.3,68.5 41.8,68 41.8,70.3 						"/>
					</g>
				</g>
				<g>
					<circle fill="#B8AF82" cx="50.1" cy="69.1" r="2.3"/>
					<g>
						<rect id="rect209542-3_90_" x="49.5" y="68.5" fill="#B3B3B3" width="1.2" height="1.2"/>
						<polygon id="polygon209544-4_90_" fill="#999999" points="49.5,69.7 50.7,69.7 51.3,70.3 49,70.3 						"/>
						<polygon id="polygon209546-5_90_" fill="#808080" points="50.7,69.7 51.3,70.3 51.3,68 50.7,68.5 						"/>
						<polygon id="polygon209548-0_90_" fill="#CCCCCC" points="50.7,68.5 51.3,68 49,68 49.5,68.5 						"/>
						<polygon id="polygon209550-1_90_" fill="#CCCCCC" points="49.5,69.7 49.5,68.5 49,68 49,70.3 						"/>
					</g>
				</g>
				<g>
					<circle fill="#B8AF82" cx="57.3" cy="69.1" r="2.3"/>
					<g>
						<rect id="rect209542-3_89_" x="56.7" y="68.5" fill="#B3B3B3" width="1.2" height="1.2"/>
						<polygon id="polygon209544-4_89_" fill="#999999" points="56.7,69.7 57.9,69.7 58.4,70.3 56.1,70.3 						"/>
						<polygon id="polygon209546-5_89_" fill="#808080" points="57.9,69.7 58.4,70.3 58.4,68 57.9,68.5 						"/>
						<polygon id="polygon209548-0_89_" fill="#CCCCCC" points="57.9,68.5 58.4,68 56.1,68 56.7,68.5 						"/>
						<polygon id="polygon209550-1_89_" fill="#CCCCCC" points="56.7,69.7 56.7,68.5 56.1,68 56.1,70.3 						"/>
					</g>
				</g>
				<g>
					<circle fill="#B8AF82" cx="64.5" cy="69.1" r="2.3"/>
					<g>
						<rect id="rect209542-3_88_" x="63.9" y="68.5" fill="#B3B3B3" width="1.2" height="1.2"/>
						<polygon id="polygon209544-4_88_" fill="#999999" points="63.9,69.7 65.1,69.7 65.6,70.3 63.3,70.3 						"/>
						<polygon id="polygon209546-5_88_" fill="#808080" points="65.1,69.7 65.6,70.3 65.6,68 65.1,68.5 						"/>
						<polygon id="polygon209548-0_88_" fill="#CCCCCC" points="65.1,68.5 65.6,68 63.3,68 63.9,68.5 						"/>
						<polygon id="polygon209550-1_88_" fill="#CCCCCC" points="63.9,69.7 63.9,68.5 63.3,68 63.3,70.3 						"/>
					</g>
				</g>
				<g>
					<circle fill="#B8AF82" cx="71.7" cy="69.1" r="2.3"/>
					<g>
						<rect id="rect209542-3_87_" x="71.1" y="68.5" fill="#B3B3B3" width="1.2" height="1.2"/>
						<polygon id="polygon209544-4_87_" fill="#999999" points="71.1,69.7 72.2,69.7 72.8,70.3 70.5,70.3 						"/>
						<polygon id="polygon209546-5_87_" fill="#808080" points="72.2,69.7 72.8,70.3 72.8,68 72.2,68.5 						"/>
						<polygon id="polygon209548-0_87_" fill="#CCCCCC" points="72.2,68.5 72.8,68 70.5,68 71.1,68.5 						"/>
						<polygon id="polygon209550-1_87_" fill="#CCCCCC" points="71.1,69.7 71.1,68.5 70.5,68 70.5,70.3 						"/>
					</g>
				</g>
				<g>
					<circle fill="#B8AF82" cx="78.8" cy="69.1" r="2.3"/>
					<g>
						<rect id="rect209542-3_86_" x="78.2" y="68.5" fill="#B3B3B3" width="1.2" height="1.2"/>
						<polygon id="polygon209544-4_86_" fill="#999999" points="78.3,69.7 79.4,69.7 80,70.3 77.7,70.3 						"/>
						<polygon id="polygon209546-5_86_" fill="#808080" points="79.4,69.7 80,70.3 80,68 79.4,68.5 						"/>
						<polygon id="polygon209548-0_86_" fill="#CCCCCC" points="79.4,68.5 80,68 77.7,68 78.3,68.5 						"/>
						<polygon id="polygon209550-1_86_" fill="#CCCCCC" points="78.3,69.7 78.3,68.5 77.7,68 77.7,70.3 						"/>
					</g>
				</g>
				<g>
					<circle fill="#B8AF82" cx="86" cy="69.1" r="2.3"/>
					<g>
						<rect id="rect209542-3_85_" x="85.4" y="68.5" fill="#B3B3B3" width="1.2" height="1.2"/>
						<polygon id="polygon209544-4_85_" fill="#999999" points="85.4,69.7 86.6,69.7 87.2,70.3 84.9,70.3 						"/>
						<polygon id="polygon209546-5_85_" fill="#808080" points="86.6,69.7 87.2,70.3 87.2,68 86.6,68.5 						"/>
						<polygon id="polygon209548-0_85_" fill="#CCCCCC" points="86.6,68.5 87.2,68 84.9,68 85.4,68.5 						"/>
						<polygon id="polygon209550-1_85_" fill="#CCCCCC" points="85.4,69.7 85.4,68.5 84.9,68 84.9,70.3 						"/>
					</g>
				</g>
				<g>
					<circle fill="#B8AF82" cx="93.2" cy="69.1" r="2.3"/>
					<g>
						<rect id="rect209542-3_84_" x="92.6" y="68.5" fill="#B3B3B3" width="1.2" height="1.2"/>
						<polygon id="polygon209544-4_84_" fill="#999999" points="92.6,69.7 93.8,69.7 94.3,70.3 92.1,70.3 						"/>
						<polygon id="polygon209546-5_84_" fill="#808080" points="93.8,69.7 94.3,70.3 94.3,68 93.8,68.5 						"/>
						<polygon id="polygon209548-0_84_" fill="#CCCCCC" points="93.8,68.5 94.3,68 92.1,68 92.6,68.5 						"/>
						<polygon id="polygon209550-1_84_" fill="#CCCCCC" points="92.6,69.7 92.6,68.5 92.1,68 92.1,70.3 						"/>
					</g>
				</g>
				<g>
					<circle fill="#B8AF82" cx="100.4" cy="69.1" r="2.3"/>
					<g>
						<rect id="rect209542-3_83_" x="99.8" y="68.5" fill="#B3B3B3" width="1.2" height="1.2"/>
						<polygon id="polygon209544-4_83_" fill="#999999" points="99.8,69.7 101,69.7 101.5,70.3 99.2,70.3 						"/>
						<polygon id="polygon209546-5_83_" fill="#808080" points="101,69.7 101.5,70.3 101.5,68 101,68.5 						"/>
						<polygon id="polygon209548-0_83_" fill="#CCCCCC" points="101,68.5 101.5,68 99.2,68 99.8,68.5 						"/>
						<polygon id="polygon209550-1_83_" fill="#CCCCCC" points="99.8,69.7 99.8,68.5 99.2,68 99.2,70.3 						"/>
					</g>
				</g>
				<g>
					<circle fill="#B8AF82" cx="107.6" cy="69.1" r="2.3"/>
					<g>
						<rect id="rect209542-3_82_" x="107" y="68.5" fill="#B3B3B3" width="1.2" height="1.2"/>
						<polygon id="polygon209544-4_82_" fill="#999999" points="107,69.7 108.2,69.7 108.7,70.3 106.4,70.3 						"/>
						<polygon id="polygon209546-5_82_" fill="#808080" points="108.2,69.7 108.7,70.3 108.7,68 108.2,68.5 						"/>
						<polygon id="polygon209548-0_82_" fill="#CCCCCC" points="108.2,68.5 108.7,68 106.4,68 107,68.5 						"/>
						<polygon id="polygon209550-1_82_" fill="#CCCCCC" points="107,69.7 107,68.5 106.4,68 106.4,70.3 						"/>
					</g>
				</g>
				<g>
					<circle fill="#B8AF82" cx="114.7" cy="69.1" r="2.3"/>
					<g>
						<rect id="rect209542-3_81_" x="114.2" y="68.5" fill="#B3B3B3" width="1.2" height="1.2"/>
						<polygon id="polygon209544-4_81_" fill="#999999" points="114.2,69.7 115.3,69.7 115.9,70.3 113.6,70.3 						"/>
						<polygon id="polygon209546-5_81_" fill="#808080" points="115.3,69.7 115.9,70.3 115.9,68 115.3,68.5 						"/>
						<polygon id="polygon209548-0_81_" fill="#CCCCCC" points="115.3,68.5 115.9,68 113.6,68 114.2,68.5 						"/>
						<polygon id="polygon209550-1_81_" fill="#CCCCCC" points="114.2,69.7 114.2,68.5 113.6,68 113.6,70.3 						"/>
					</g>
				</g>
				<g>
					<circle fill="#B8AF82" cx="121.9" cy="69.1" r="2.3"/>
					<g>
						<rect id="rect209542-3_79_" x="121.3" y="68.5" fill="#B3B3B3" width="1.2" height="1.2"/>
						<polygon id="polygon209544-4_79_" fill="#999999" points="121.3,69.7 122.5,69.7 123.1,70.3 120.8,70.3 						"/>
						<polygon id="polygon209546-5_79_" fill="#808080" points="122.5,69.7 123.1,70.3 123.1,68 122.5,68.5 						"/>
						<polygon id="polygon209548-0_79_" fill="#CCCCCC" points="122.5,68.5 123.1,68 120.8,68 121.3,68.5 						"/>
						<polygon id="polygon209550-1_79_" fill="#CCCCCC" points="121.3,69.7 121.3,68.5 120.8,68 120.8,70.3 						"/>
					</g>
				</g>
				<g>
					<circle fill="#B8AF82" cx="129.1" cy="69.1" r="2.3"/>
					<g>
						<rect id="rect209542-3_61_" x="128.5" y="68.5" fill="#B3B3B3" width="1.2" height="1.2"/>
						<polygon id="polygon209544-4_61_" fill="#999999" points="128.5,69.7 129.7,69.7 130.3,70.3 128,70.3 						"/>
						<polygon id="polygon209546-5_61_" fill="#808080" points="129.7,69.7 130.3,70.3 130.3,68 129.7,68.5 						"/>
						<polygon id="polygon209548-0_61_" fill="#CCCCCC" points="129.7,68.5 130.3,68 128,68 128.5,68.5 						"/>
						<polygon id="polygon209550-1_61_" fill="#CCCCCC" points="128.5,69.7 128.5,68.5 128,68 128,70.3 						"/>
					</g>
				</g>
				<g>
					<circle fill="#B8AF82" cx="136.3" cy="69.1" r="2.3"/>
					<g>
						<rect id="rect209542-3_59_" x="135.7" y="68.5" fill="#B3B3B3" width="1.2" height="1.2"/>
						<polygon id="polygon209544-4_59_" fill="#999999" points="135.7,69.7 136.9,69.7 137.4,70.3 135.1,70.3 						"/>
						<polygon id="polygon209546-5_59_" fill="#808080" points="136.9,69.7 137.4,70.3 137.4,68 136.9,68.5 						"/>
						<polygon id="polygon209548-0_59_" fill="#CCCCCC" points="136.9,68.5 137.4,68 135.1,68 135.7,68.5 						"/>
						<polygon id="polygon209550-1_59_" fill="#CCCCCC" points="135.7,69.7 135.7,68.5 135.1,68 135.1,70.3 						"/>
					</g>
				</g>
				<g>
					<circle fill="#B8AF82" cx="143.5" cy="69.1" r="2.3"/>
					<g>
						<rect id="rect209542-3_1_" x="142.9" y="68.5" fill="#B3B3B3" width="1.2" height="1.2"/>
						<polygon id="polygon209544-4_1_" fill="#999999" points="142.9,69.7 144.1,69.7 144.6,70.3 142.3,70.3 						"/>
						<polygon id="polygon209546-5_1_" fill="#808080" points="144.1,69.7 144.6,70.3 144.6,68 144.1,68.5 						"/>
						<polygon id="polygon209548-0_1_" fill="#CCCCCC" points="144.1,68.5 144.6,68 142.3,68 142.9,68.5 						"/>
						<polygon id="polygon209550-1_1_" fill="#CCCCCC" points="142.9,69.7 142.9,68.5 142.3,68 142.3,70.3 						"/>
					</g>
				</g>
			</g>
			<g id="icon_3_">
				<g transform="matrix(1, 0, 0, 1, 100, 118.757)">
					<g>
						<g>
							<rect x="51.4" y="-67.4" fill="#F7BD13" width="0.6" height="2.1"/>
							<rect x="51.4" y="-67.4" fill="#FCE5A1" width="0.6" height="0.1"/>
							<rect x="51.4" y="-65.3" fill="#B98E0E" width="0.6" height="0.1"/>
						</g>
						<rect x="51.8" y="-70.4" fill="#E6E6E6" width="7.9" height="7.9"/>
						<polygon opacity="0.22" fill="#1D1D1B" enable-background="new    " points="59.6,-70.3 59.6,-62.6 51.9,-62.6 51.8,-62.5 
							59.7,-62.5 59.7,-70.4 						"/>
						<polygon opacity="0.42" fill="#FFFFFF" enable-background="new    " points="51.9,-62.6 51.9,-70.4 59.6,-70.4 59.7,-70.5 
							51.8,-70.5 51.8,-62.5 						"/>
						<rect x="57.9" y="-67.4" fill="#F7BD13" width="2.2" height="2.1"/>
						<rect x="57.9" y="-67.4" fill="#FCE5A1" width="2.2" height="0.1"/>
						<rect x="57.9" y="-67.4" opacity="0.22" fill="#1D1D1B" enable-background="new    " width="1.8" height="0.1"/>
						<g>
							<circle opacity="0.12" enable-background="new    " cx="55.7" cy="-66.4" r="2.8"/>
							<circle fill="#FEE068" cx="55.7" cy="-66.5" r="2.8"/>
							<circle opacity="0.49" fill="#FFFFFF" enable-background="new    " cx="55.7" cy="-66.5" r="2.7"/>
							<circle fill="#ECB74D" cx="55.7" cy="-66.5" r="2.7"/>
							<g>
								<g>
									<circle fill="#ECC847" cx="55.7" cy="-66.5" r="0.8"/>
									<path opacity="0.16" fill="#1D1D1B" enable-background="new    " d="M56.5-66.5c0,0.4-0.4,0.8-0.8,0.8v-0.8H56.5z"/>
									<path opacity="0.25" fill="#FFFFFF" enable-background="new    " d="M54.9-66.5c0-0.4,0.4-0.8,0.8-0.8v0.8H54.9z"/>
									<circle fill="#FBC91A" cx="55.7" cy="-66.5" r="0.5"/>
								</g>
							</g>
						</g>
					</g>
				</g>
			</g>
			<g>
				<polygon fill="#358E25" points="156.8,16.8 157.3,16.8 158.5,16.8 158.5,8.6 156.8,8.6 152.7,8.6 152.3,8.6 152.3,31 156.7,31 
					156.7,16.8 				"/>
			</g>
			<g>
				<rect x="156.7" y="16.7" fill="#E6E6E6" width="3.4" height="5.8"/>
				<rect x="156.7" y="17.6" fill="#4D4D4D" width="3.4" height="4"/>
			</g>
			<g>
				<rect x="41.1" y="8.6" fill="#BCBEC0" width="107" height="56.5"/>
				<g>
					<polygon fill="#808080" points="147,9.6 147,9.6 147,64.1 147,64.1 148,65.1 148,8.6 					"/>
					<polygon fill="#CCCCCC" points="42.1,9.6 42.1,9.6 42.1,64.1 42.1,64.1 41.1,65.1 41.1,8.6 					"/>
					<g>
						<polygon fill="#CCCCCC" points="146.7,8.6 41.1,8.6 42.1,9.6 146.7,9.6 147,9.6 147,9.6 147,9.6 148,8.6 						"/>
					</g>
					<g>
						<polygon fill="#999999" points="146.7,65.1 41.1,65.1 42.1,64.1 146.7,64.1 147,64.1 147,64.1 147,64.1 148,65.1 						"/>
					</g>
				</g>
				<polyline opacity="0.1" fill="#FFFFFF" points="42.1,64.1 42.1,64.1 42.1,9.6 42.1,9.6 42.4,9.6 147,9.6 				"/>
				<g>
					<g>
						<g>
							<path fill="#FFFFFF" d="M46.4,23.9v-8h1.4v6.7h3.8v1.3H46.4z"/>
							<path fill="#FFFFFF" d="M53.1,17.1c-0.6,0-0.8-0.3-0.8-0.7c0-0.4,0.2-0.7,0.8-0.7c0.6,0,0.8,0.3,0.8,0.7
								C53.9,16.8,53.7,17.1,53.1,17.1z M52.4,23.9v-6h1.4v6H52.4z"/>
							<path fill="#FFFFFF" d="M59,23.9v-3.6c0-0.9-0.4-1.3-1.1-1.3c-0.7,0-1.3,0.5-1.6,0.8v4.1H55v-6H56l0.1,0.8
								c0.4-0.5,1.1-0.9,2.1-0.9c1.3,0,2.1,0.8,2.1,2.2v3.9H59z"/>
							<path fill="#FFFFFF" d="M65.3,23.9c0-0.1-1.4-2.4-1.4-2.4h-0.9v2.4h-1.4v-8.3h1.4v4.8c0.3,0,0.7-0.1,1-0.2
								c0.3-0.3,1.3-2.3,1.3-2.3h1.4c-0.2,0.5-1,2.4-1.6,3l1.7,2.9H65.3z"/>
							<path fill="#FFFFFF" d="M67.5,23.9v-8h1.4v8H67.5z"/>
							<path fill="#FFFFFF" d="M73.7,23.8c-0.4,0.2-0.9,0.3-1.4,0.3c-0.9,0-1.8-0.4-1.8-1.8v-3.2h-0.8V18h0.8l0.2-1.4h1.2V18h1.7
								l-0.1,1.1h-1.7v3c0,0.6,0.4,0.7,0.9,0.7c0.3,0,0.6-0.1,0.9-0.2L73.7,23.8z"/>
						</g>
						<g>
							<path fill="#FFFFFF" d="M75.4,19.2v-2.6h-1v-0.5H77v0.5h-1v2.6H75.4z"/>
							<path fill="#FFFFFF" d="M79.9,19.2l-0.1-1.9l0-0.5l-0.2,0.5L79,18.5h-0.4L78,17.3l-0.2-0.5l0,0.5l-0.1,1.9h-0.5l0.2-3.1h0.6
								l0.8,1.5l0.1,0.3l0.1-0.3l0.8-1.5h0.6l0.2,3.1H79.9z"/>
						</g>
						<g>
							<path fill="#FFFFFF" d="M84.1,22.2c0.2,0.1,1.4,0.4,2.6,0.4c1,0,1.8-0.3,1.8-1.1c0-1.6-4.5-0.8-4.5-3.6
								c0-1.5,1.2-2.3,3.2-2.3c1.2,0,2.3,0.3,2.4,0.4l-0.1,1.3c-0.4-0.2-1.5-0.4-2.3-0.4c-1,0-1.8,0.3-1.8,1c0,1.5,4.5,0.7,4.5,3.6
								c0,1.6-1.2,2.4-3.2,2.4c-1.5,0-2.7-0.4-2.7-0.4L84.1,22.2z"/>
							<path fill="#FFFFFF" d="M98.4,23.8V20c0-0.8-0.5-1.2-1-1.2c-0.7,0-1.2,0.4-1.4,0.8v4.1h-1.4V20c0-0.8-0.4-1.2-1-1.2
								c-0.7,0-1.2,0.5-1.4,0.8v4.1h-1.4v-6h1.1l0.1,0.8c0.4-0.5,1-0.9,2-0.9c0.8,0,1.4,0.3,1.7,1c0.4-0.5,1-1,2.1-1
								c1.1,0,2,0.7,2,2.1v4H98.4z"/>
							<path fill="#FFFFFF" d="M104.8,23.8l-0.1-0.7c-0.5,0.6-1.2,0.9-2,0.9c-1.1,0-2-0.5-2-1.7c0-1.3,1.3-1.8,2.7-1.8
								c0.4,0,0.8,0,1.1,0.1v-0.7c0-0.7-0.5-1-1.5-1c-0.7,0-1.3,0.1-1.8,0.4l-0.1-1.1c0.4-0.1,1.1-0.4,2.2-0.4
								c1.4,0,2.6,0.4,2.6,2.1v4H104.8z M104.5,21.4c-0.2,0-0.6-0.1-1-0.1c-0.8,0-1.5,0.2-1.5,0.9c0,0.6,0.6,0.7,1,0.7
								c0.8,0,1.2-0.4,1.5-0.6V21.4z"/>
							<path fill="#FFFFFF" d="M107,23.8v-6h1l0.2,0.9c0.5-0.6,1.2-1,2.2-1l-0.1,1.2c-0.7,0-1.4,0.3-1.9,0.8v4H107z"/>
							<path fill="#FFFFFF" d="M114.6,23.6c-0.4,0.2-0.9,0.3-1.4,0.3c-0.9,0-1.8-0.4-1.8-1.8v-3.2h-0.8v-1.1h0.8l0.2-1.4h1.2v1.4
								h1.7l-0.1,1.1h-1.7v3c0,0.6,0.4,0.7,0.9,0.7c0.3,0,0.6-0.1,0.9-0.2L114.6,23.6z"/>
							<path fill="#FFFFFF" d="M117.9,23.8l2.5-6l0.4-0.8l-0.9,0.1h-2.7v-1.3h5.2l0.1,1l-2.9,7H117.9z"/>
							<path fill="#FFFFFF" d="M128.2,17c-0.6-0.2-1.1-0.2-1.5-0.2c-1.5,0-2.1,0.9-2.2,2.4c0.5-0.3,1.1-0.5,1.9-0.5
								c1.7,0,2.4,1,2.4,2.4c0,1.6-1,2.7-2.9,2.7c-2.4,0-2.9-1.8-2.9-3.8c0-3,1.1-4.5,3.4-4.5c0.5,0,1.1,0.1,1.7,0.2L128.2,17z
								 M126,22.8c0.7,0,1.4-0.4,1.4-1.6c0-1-0.6-1.4-1.3-1.4c-0.6,0-1.2,0.2-1.6,0.5C124.5,21.8,124.9,22.8,126,22.8z"/>
							<path fill="#FFFFFF" d="M135.7,21.6c0,1.5-1.2,2.3-3,2.3c-2,0-3-0.8-3-2.2c0-1.1,0.7-1.7,1.5-2c-0.7-0.4-1.3-0.9-1.3-1.9
								c0-1.4,1-2.1,2.8-2.1c1.9,0,2.9,0.8,2.9,2c0,1-0.7,1.7-1.3,2C135,20,135.7,20.5,135.7,21.6z M131.1,21.6
								c0,0.7,0.7,1.1,1.6,1.1s1.6-0.4,1.6-1.2c0-0.9-0.8-1.1-1.8-1.4C131.7,20.4,131.1,20.9,131.1,21.6z M134.1,17.8
								c0-0.7-0.7-1.1-1.5-1.1c-0.8,0-1.5,0.3-1.5,1.1c0,0.9,0.8,1.1,1.7,1.4C133.6,18.9,134.1,18.5,134.1,17.8z"/>
							<path fill="#FFFFFF" d="M142.6,21.6c0,1.5-1.2,2.3-3,2.3c-2,0-3-0.8-3-2.2c0-1.1,0.7-1.7,1.5-2c-0.7-0.4-1.3-0.9-1.3-1.9
								c0-1.4,1-2.1,2.8-2.1c1.9,0,2.9,0.8,2.9,2c0,1-0.7,1.7-1.3,2C141.9,20,142.6,20.5,142.6,21.6z M137.9,21.6
								c0,0.7,0.7,1.1,1.6,1.1s1.6-0.4,1.6-1.2c0-0.9-0.8-1.1-1.8-1.4C138.6,20.4,137.9,20.9,137.9,21.6z M141,17.8
								c0-0.7-0.7-1.1-1.5-1.1c-0.8,0-1.5,0.3-1.5,1.1c0,0.9,0.8,1.1,1.7,1.4C140.5,18.9,141,18.5,141,17.8z"/>
						</g>
					</g>
					<rect x="46.4" y="40.6" fill="#FFFFFF" width="96.2" height="0.5"/>
					<g>
						<g>
							<g>
								<g>
									<g>
										<path fill="#FFFFFF" d="M140,52.3c-1.2,0-2.2-1-2.2-2.2c0-1.2,1-2.2,2.2-2.2c0.7,0,1.4,0.4,1.8,0.9l0.9,0
											c-0.5-1-1.5-1.7-2.7-1.7c-1.5,0-2.8,1.1-3,2.6c-0.2,0-1.8,0-1.9,0c-0.1,0-0.1,0-0.1,0s0-1.3,0-1.5c0-0.1,0.2-0.2,0.2-0.2
											s1.8,0,1.9,0c0.1,0,0,0,0,0v-1l0,0c0,0-1.8,0-2.3,0c-0.2,0-0.5,0.2-0.6,0.4c-0.2,0.2-0.2,0.5-0.2,0.5s0,5,0,5.1
											c0,0.1,0.1,0.1,0.1,0.1s0.7,0,0.8,0c0.1,0,0,0,0,0s0-2.5,0-2.5c0-0.1,0,0,0,0h1.9c0.2,1.5,1.4,2.6,3,2.6
											c1.2,0,2.2-0.7,2.7-1.7l-1,0C141.3,51.9,140.7,52.3,140,52.3"/>
										<path fill="#FFFFFF" d="M140,49c0.4,0,0.7,0.2,0.9,0.4l0.9,0c-0.3-0.7-0.9-1.2-1.7-1.2c-1,0-1.8,0.8-1.8,1.8
											c0,1,0.8,1.8,1.8,1.8c0.8,0,1.5-0.5,1.7-1.2l-0.9,0c-0.2,0.2-0.5,0.4-0.8,0.4c-0.6,0-1-0.5-1-1
											C138.9,49.5,139.4,49,140,49"/>
									</g>
									<g>
										<path fill="#FFFFFF" d="M125.6,52.1v0.9c-0.1,0-0.2,0-0.3,0c-1.7,0-3.1-1.4-3.1-3.1c0-1.7,1.4-3.1,3.1-3.1
											c0.1,0,0.2,0,0.3,0v0.9c-0.1,0-0.2,0-0.3,0c-1.2,0-2.2,1-2.2,2.2c0,1.2,1,2.2,2.2,2.2C125.4,52.2,125.5,52.2,125.6,52.1z"
											/>
										<path fill="#FFFFFF" d="M128.4,49.5h1.8v0.9h-1.8c0.2,1,1.1,1.7,2.1,1.7c0.1,0,0.2,0,0.3,0v0.9c-0.1,0-0.2,0-0.3,0
											c-1.7,0-3.1-1.4-3.1-3.1c0-1.7,1.4-3.1,3.1-3.1c0.1,0,0.2,0,0.3,0v0.9c-0.1,0-0.2,0-0.3,0
											C129.5,47.8,128.6,48.6,128.4,49.5z"/>
									</g>
								</g>
							</g>
						</g>
					</g>
					<g>
						<g>
							<g>
								<polygon fill="#FFFFFF" points="66,46.9 66,53.1 69.9,53.1 69.9,52.1 67.1,52.1 67.1,46.9 								"/>
								<path fill="#FFFFFF" d="M71.1,47.8c-0.5,0-0.6-0.2-0.6-0.6c0-0.3,0.2-0.6,0.6-0.6c0.4,0,0.6,0.2,0.6,0.6
									C71.7,47.6,71.5,47.8,71.1,47.8 M70.5,48.5h1v4.6h-1V48.5z"/>
								<path fill="#FFFFFF" d="M75.5,53.1v-2.8c0-0.7-0.3-1-0.8-1c-0.6,0-1,0.3-1.2,0.6v3.1h-1v-4.6h0.8l0.1,0.6
									c0.3-0.4,0.9-0.7,1.6-0.7c1,0,1.6,0.6,1.6,1.7v2.9H75.5z"/>
								<path fill="#FFFFFF" d="M80.1,53.1c0-0.1-1.1-1.8-1.1-1.8h-0.7v1.8h-1v-6.3h1v3.7c0.2,0,0.6-0.1,0.8-0.1
									c0.3-0.2,1-1.8,1-1.8h1.1c-0.1,0.3-0.8,1.8-1.2,2.3l1.3,2.3H80.1z"/>
								<polygon fill="#FFFFFF" points="82.6,53.1 82.6,46.7 83.6,46.7 83.6,52 83.6,53.1 								"/>
								<path fill="#FFFFFF" d="M87.3,52.9c-0.3,0.1-0.7,0.2-1.1,0.2c-0.7,0-1.4-0.3-1.4-1.4v-2.4h-0.6v-0.8h0.6l0.1-1.1h0.9v1.1
									h1.3l0,0.8h-1.3v2.3c0,0.5,0.3,0.6,0.7,0.6c0.2,0,0.5-0.1,0.7-0.2L87.3,52.9z"/>
								<path fill="#FFFFFF" d="M67,55.4h0.3v0.7l0,0.2c0.1-0.1,0.3-0.3,0.6-0.3c0.5,0,0.8,0.3,0.8,1c0,0.6-0.3,1-1,1
									C67.4,58,67,58,67,57.9V55.4z M67.2,57.8c0.1,0,0.3,0,0.4,0c0.5,0,0.7-0.2,0.7-0.8c0-0.5-0.2-0.7-0.5-0.7
									c-0.3,0-0.5,0.2-0.6,0.3V57.8z"/>
								<path fill="#FFFFFF" d="M68.8,58.5c0.1,0,0.2,0,0.2,0c0.2,0,0.4-0.3,0.5-0.5l-0.7-1.9h0.3l0.4,1.3l0.1,0.3l0.6-1.6h0.3
									L69.7,58c-0.2,0.5-0.3,0.7-0.7,0.7c-0.1,0-0.2,0-0.3,0L68.8,58.5z"/>
								<polygon fill="#FFFFFF" points="73.7,58 73.6,56.5 73.6,56.1 73.4,56.5 72.9,57.4 72.6,57.4 72.1,56.5 72,56.1 72,56.5 
									71.9,58 71.5,58 71.6,55.5 72.1,55.5 72.7,56.7 72.8,56.9 72.9,56.7 73.5,55.5 74,55.5 74.1,58 								"/>
								<path fill="#FFFFFF" d="M76.1,57.9C75.9,58,75.6,58,75.4,58c-0.6,0-1-0.4-1-1c0-0.6,0.3-1,0.9-1c0.6,0,0.8,0.4,0.8,0.8
									c0,0.1,0,0.2,0,0.3h-1.2c0,0.4,0.2,0.5,0.6,0.5c0.3,0,0.6-0.1,0.7-0.1L76.1,57.9z M75.7,56.9c0-0.3-0.1-0.4-0.4-0.4
									c-0.3,0-0.4,0.2-0.4,0.5L75.7,56.9L75.7,56.9z"/>
								<path fill="#FFFFFF" d="M77.8,58l0-0.2c-0.1,0.1-0.3,0.3-0.6,0.3c-0.5,0-0.7-0.3-0.7-1c0-0.6,0.3-1,0.9-1
									c0.2,0,0.3,0,0.4,0.1l0-0.2v-0.6h0.4V58H77.8z M77.7,56.5c-0.1,0-0.2,0-0.3,0c-0.3,0-0.5,0.2-0.5,0.6c0,0.4,0.1,0.6,0.4,0.6
									c0.2,0,0.4-0.2,0.5-0.3V56.5z"/>
								<path fill="#FFFFFF" d="M78.8,55.9c-0.2,0-0.3-0.1-0.3-0.2c0-0.1,0.1-0.2,0.3-0.2c0.2,0,0.2,0.1,0.2,0.2
									C79.1,55.8,79,55.9,78.8,55.9 M78.6,56.1h0.4V58h-0.4V56.1z"/>
								<path fill="#FFFFFF" d="M80.7,58l0-0.2C80.5,58,80.3,58,80.1,58c-0.3,0-0.6-0.2-0.6-0.5c0-0.4,0.4-0.6,0.8-0.6
									c0.1,0,0.2,0,0.4,0v-0.2c0-0.2-0.2-0.3-0.5-0.3c-0.2,0-0.4,0-0.6,0.1l0-0.4c0.1,0,0.3-0.1,0.7-0.1c0.4,0,0.8,0.1,0.8,0.7V58
									H80.7z M80.6,57.3c-0.1,0-0.2,0-0.3,0c-0.2,0-0.5,0.1-0.5,0.3c0,0.2,0.2,0.2,0.3,0.2c0.2,0,0.4-0.1,0.5-0.2V57.3z"/>
								<polygon fill="#FFFFFF" points="81.6,58 81.6,55.9 80.9,55.9 80.9,55.5 82.9,55.5 82.9,55.9 82.1,55.9 82.1,58 								"/>
								<path fill="#FFFFFF" d="M84.2,57.9C84,58,83.8,58,83.5,58c-0.6,0-1-0.4-1-1c0-0.6,0.3-1,0.9-1c0.6,0,0.8,0.4,0.8,0.8
									c0,0.1,0,0.2,0,0.3H83c0,0.4,0.2,0.5,0.6,0.5c0.3,0,0.6-0.1,0.7-0.1L84.2,57.9z M83.8,56.9c0-0.3-0.1-0.4-0.4-0.4
									c-0.3,0-0.4,0.2-0.4,0.5L83.8,56.9L83.8,56.9z"/>
								<path fill="#FFFFFF" d="M85.8,58c0,0-0.4-0.8-0.4-0.8h-0.3V58h-0.4v-2.6h0.4v1.5c0.1,0,0.2,0,0.3-0.1
									c0.1-0.1,0.4-0.7,0.4-0.7h0.4c-0.1,0.1-0.3,0.7-0.5,1l0.5,0.9H85.8z"/>
							</g>
							<path fill="#FFFFFF" d="M88.4,48.6h-0.3v0.7H88v-0.7h-0.3v-0.1h0.7V48.6z M89,49.1l0.2-0.6h0.2v0.8h-0.2v-0.7h0l-0.2,0.7H89
								l-0.2-0.7h0v0.7h-0.2v-0.8h0.2L89,49.1z"/>
						</g>
						<g>
							<g>
								<path fill="#FFFFFF" d="M52.4,52.6L52.4,52.6L52.4,52.6l-1.7-1.7l-0.1-0.1l0.1-0.1l5.3-5.3c-0.4-0.4-1-0.6-1.6-0.6
									c-0.6,0-1.2,0.2-1.6,0.6l0,0l-5.3,5.3l5,5C53.3,54.9,53.3,53.5,52.4,52.6z"/>
								<path fill="#FFFFFF" d="M47.4,50.8l5.3-5.3l0,0c0.4-0.4,1-0.6,1.6-0.6c0.6,0,1.1,0.2,1.6,0.6l-5.3,5.3l-0.1,0.1l0.1,0.1
									l1.7,1.7l0,0l0.1,0.1c0.9,0.9,0.9,2.3,0.1,3.2L47.4,50.8z"/>
							</g>
							<path fill="#FFFFFF" d="M61.7,51.1L61.7,51.1l-5.4-5.4l-5,5c0.9,0.8,2.3,0.8,3.2-0.1l0.1-0.1l0,0l1.7-1.7l0.1-0.1l0.1,0.1
								l5.3,5.3c0.4-0.4,0.6-1,0.6-1.6C62.4,52.1,62.2,51.5,61.7,51.1z"/>
							<g>
								<path fill="#FFFFFF" d="M54.3,54.8L54.3,54.8L54.3,54.8l-1.7,1.7l-0.1,0.1l-0.1-0.1l-5.3-5.3c-0.4,0.4-0.6,1-0.6,1.6
									c0,0.6,0.2,1.2,0.6,1.6l0,0l0,0l5.3,5.3l5-5C56.6,53.9,55.2,53.9,54.3,54.8z"/>
							</g>
							<g>
								<path fill="#FFFFFF" d="M61.4,54.7l-5-5c-0.8,0.9-0.8,2.3,0.1,3.2l0.1,0.1l0,0l1.7,1.7l0.1,0.1l-0.1,0.1l-5.3,5.3
									c0.4,0.4,1,0.6,1.6,0.6c0.6,0,1.2-0.2,1.6-0.7l0,0L61.4,54.7z"/>
							</g>
							<g>
								<path fill="#FFFFFF" d="M61.7,51.1L61.7,51.1l-5.4-5.4l-5,5c0.9,0.8,2.3,0.8,3.2-0.1l0.1-0.1l0,0l1.7-1.7l0.1-0.1l0.1,0.1
									l5.3,5.3c0.4-0.4,0.6-1,0.6-1.6C62.4,52.1,62.2,51.5,61.7,51.1z"/>
							</g>
						</g>
					</g>
					<g>
						<path fill="#FFFFFF" d="M104.3,56.9V58h-0.3v-2.5h1.7v0.2h-1.4v0.9h1.2v0.2H104.3z"/>
						<path fill="#FFFFFF" d="M107.8,58c0,0-0.4,0.1-0.7,0.1c-0.8,0-1.2-0.5-1.2-1.3c0-0.8,0.4-1.3,1.2-1.3c0.3,0,0.6,0.1,0.6,0.1
							l0,0.2c-0.1-0.1-0.4-0.1-0.6-0.1c-0.5,0-0.9,0.2-0.9,1.1c0,0.8,0.4,1,0.9,1c0.2,0,0.5,0,0.6-0.1L107.8,58z"/>
						<path fill="#FFFFFF" d="M109.9,58c0,0-0.4,0.1-0.7,0.1c-0.8,0-1.2-0.5-1.2-1.3c0-0.8,0.4-1.3,1.2-1.3c0.3,0,0.6,0.1,0.6,0.1
							l0,0.2c-0.1-0.1-0.4-0.1-0.6-0.1c-0.5,0-0.9,0.2-0.9,1.1c0,0.8,0.4,1,0.9,1c0.2,0,0.5,0,0.6-0.1L109.9,58z"/>
						<path fill="#FFFFFF" d="M110.9,58v-2.5h0.3V58H110.9z"/>
						<path fill="#FFFFFF" d="M111.7,55.5h0.8c0.8,0,1.2,0.5,1.2,1.3c0,0.7-0.3,1.3-1.2,1.3h-0.8V55.5z M112.5,57.8
							c0.7,0,0.9-0.4,0.9-1c0-0.6-0.2-1-0.9-1H112v2.1H112.5z"/>
						<path fill="#FFFFFF" d="M114.3,56.6c-0.1,0-0.2-0.1-0.2-0.2c0-0.1,0.1-0.2,0.2-0.2c0.1,0,0.2,0.1,0.2,0.2
							C114.5,56.5,114.4,56.6,114.3,56.6z M114.3,58c-0.1,0-0.2-0.1-0.2-0.2c0-0.1,0.1-0.2,0.2-0.2c0.1,0,0.2,0.1,0.2,0.2
							C114.5,58,114.4,58,114.3,58z"/>
						<path fill="#FFFFFF" d="M115.6,58v-0.2l1.4-1.9l0.2-0.2l-0.3,0h-1.3v-0.2h1.8v0.2l-1.4,1.9l-0.2,0.2l0.3,0h1.3V58H115.6z"/>
						<path fill="#FFFFFF" d="M118.9,58v-0.6h-1.2l-0.1-0.2l1.1-1.7h0.4v1.7h0.4v0.2h-0.4V58H118.9z M118.9,56l0-0.3l-0.2,0.3
							l-0.8,1.2h1V56z"/>
						<path fill="#FFFFFF" d="M120.5,58v-2.3h-0.8v-0.2h1.9v0.2h-0.8V58H120.5z"/>
						<path fill="#FFFFFF" d="M121.8,57v-0.2h1V57H121.8z"/>
						<path fill="#FFFFFF" d="M123.2,58v-2.5h0.3v2.3h1.3V58H123.2z"/>
						<path fill="#FFFFFF" d="M125,58v-2.5h0.3V58H125z"/>
						<path fill="#FFFFFF" d="M127.4,58l-1.2-1.7l-0.2-0.4l0,0.4V58h-0.3v-2.5h0.3l1.2,1.8l0.2,0.4l0-0.4v-1.8h0.3V58H127.4z"/>
						<path fill="#FFFFFF" d="M129.8,58c0,0-0.8-1.1-0.8-1.1h-0.5V58h-0.3v-2.5h0.3v1.2c0.2,0,0.4,0,0.6,0c0.2-0.1,0.8-1.2,0.8-1.2
							h0.3c-0.1,0.2-0.7,1.1-0.9,1.3l0.9,1.2H129.8z"/>
						<path fill="#FFFFFF" d="M130.3,58v-2.5h0.3V58H130.3z"/>
						<path fill="#FFFFFF" d="M131.7,58v-2.3h-0.8v-0.2h1.9v0.2H132V58H131.7z"/>
						<path fill="#FFFFFF" d="M133,57.7c0,0,0.4,0.1,0.8,0.1c0.4,0,0.7-0.1,0.7-0.5c0-0.7-1.5-0.4-1.5-1.2c0-0.4,0.4-0.7,0.9-0.7
							c0.4,0,0.7,0.1,0.7,0.1l0,0.2c-0.2-0.1-0.5-0.1-0.7-0.1c-0.4,0-0.7,0.1-0.7,0.4c0,0.6,1.5,0.3,1.5,1.2c0,0.5-0.4,0.7-0.9,0.7
							c-0.4,0-0.8-0.1-0.8-0.1L133,57.7z"/>
						<path fill="#FFFFFF" d="M135.2,58l0.9-2.1l0.1-0.2l-0.3,0h-0.9v-0.2h1.5l0,0.2l-1,2.3H135.2z"/>
						<path fill="#FFFFFF" d="M138.2,55.8c-0.2,0-0.3-0.1-0.4-0.1c-0.6,0-0.8,0.4-0.8,1c0.1-0.1,0.4-0.2,0.7-0.2
							c0.5,0,0.8,0.3,0.8,0.7c0,0.5-0.3,0.8-0.8,0.8c-0.7,0-0.9-0.5-0.9-1.2c0-0.9,0.3-1.4,1-1.4c0.1,0,0.3,0,0.5,0.1L138.2,55.8z
							 M137.6,57.8c0.3,0,0.6-0.1,0.6-0.6c0-0.4-0.2-0.5-0.5-0.5c-0.3,0-0.5,0.1-0.7,0.2C137,57.5,137.2,57.8,137.6,57.8z"/>
						<path fill="#FFFFFF" d="M140.5,57.4c0,0.4-0.3,0.7-0.9,0.7c-0.6,0-0.9-0.3-0.9-0.7c0-0.4,0.2-0.6,0.5-0.7
							c-0.3-0.1-0.5-0.3-0.5-0.6c0-0.4,0.3-0.6,0.8-0.6c0.6,0,0.9,0.3,0.9,0.6s-0.3,0.6-0.5,0.6C140.3,56.8,140.5,57,140.5,57.4z
							 M139,57.4c0,0.3,0.3,0.5,0.7,0.5c0.4,0,0.6-0.2,0.6-0.5c0-0.4-0.3-0.5-0.7-0.6C139.3,56.9,139,57.1,139,57.4z M140.2,56.1
							c0-0.3-0.3-0.4-0.6-0.4s-0.6,0.1-0.6,0.4c0,0.3,0.3,0.4,0.7,0.5C140,56.5,140.2,56.4,140.2,56.1z"/>
						<path fill="#FFFFFF" d="M142.7,57.4c0,0.4-0.3,0.7-0.9,0.7c-0.6,0-0.9-0.3-0.9-0.7c0-0.4,0.2-0.6,0.5-0.7
							c-0.3-0.1-0.5-0.3-0.5-0.6c0-0.4,0.3-0.6,0.8-0.6c0.6,0,0.9,0.3,0.9,0.6s-0.3,0.6-0.5,0.6C142.4,56.8,142.7,57,142.7,57.4z
							 M141.1,57.4c0,0.3,0.3,0.5,0.7,0.5c0.4,0,0.6-0.2,0.6-0.5c0-0.4-0.3-0.5-0.7-0.6C141.4,56.9,141.1,57.1,141.1,57.4z
							 M142.3,56.1c0-0.3-0.3-0.4-0.6-0.4s-0.6,0.1-0.6,0.4c0,0.3,0.3,0.4,0.7,0.5C142.1,56.5,142.3,56.4,142.3,56.1z"/>
					</g>
				</g>
			</g>
		</g>
		<g>
			<rect x="5.3" y="30.9" fill="#CCCCCC" width="6.2" height="2.9"/>
			<rect x="5.7" y="31.3" fill="#F1F2F2" width="5.4" height="2.2"/>
			<rect x="7.1" y="31.3" fill="#F7E8AD" width="2.6" height="2.2"/>
		</g>
		<g>
			<rect x="5.3" y="39.8" fill="#CCCCCC" width="6.2" height="2.9"/>
			<rect x="5.7" y="40.2" fill="#F1F2F2" width="5.4" height="2.2"/>
			<rect x="7.1" y="40.2" fill="#F7E8AD" width="2.6" height="2.2"/>
		</g>
		<g>
			<g>
				<text transform="matrix(1 0 0 1 6.4714 36.29)" fill="#FFFFFF" font-family="'OCRA'" font-size="2.72px">ON</text>
			</g>
			<g>
				<text transform="matrix(1 0 0 1 4.5268 39.3486)" fill="#FFFFFF" font-family="'OCRA'" font-size="2.72px">WiFi</text>
			</g>
		</g>
		<g>
			<g>
				<g>
					<g>
						<path fill="#D1D3D4" d="M15.9,5H1.8L0.1,4.2c0,0,0,0,0,0c0,0,0,0,0,0c0,0,0,0,0,0c0,0,0,0,0,0c0,0,0,0,0,0c0,0,0,0,0,0l0.3,2
							v18.4L0,26.9c0,0,0,0,0,0c0,0,0,0,0,0c0,0,0,0,0,0c0,0,0,0,0,0c0,0,0,0,0,0c0,0,0,0,0,0l1.7-0.8h14.2c0,0,0.1,0,0.1-0.1
							L15.9,5C16,5,16,5,15.9,5z"/>
						<g>
							<rect x="0.5" y="6.2" fill="#B3B3B3" width="0.6" height="18.4"/>
							<rect x="0.3" y="6.2" fill="#F1F2F2" width="0.3" height="18.4"/>
						</g>
					</g>
					<g>
						<rect x="2.5" y="8.8" fill="#4D4D4D" width="5.7" height="1.8"/>
						<rect x="2.5" y="20.5" fill="#4D4D4D" width="5.7" height="1.8"/>
					</g>
					<g>
						<rect x="13.7" y="9.5" fill="#A7A9AC" width="2.3" height="2.3"/>
						<rect x="13.7" y="19.3" fill="#A7A9AC" width="2.3" height="2.3"/>
					</g>
					<g>
						<rect x="16" y="11.8" fill="#F1F2F2" width="2.3" height="0.9"/>
						<rect x="16" y="18.5" fill="#F1F2F2" width="2.3" height="0.9"/>
						<rect x="16" y="16.3" fill="#F1F2F2" width="2.3" height="0.9"/>
						<rect x="16" y="14" fill="#F1F2F2" width="2.3" height="0.9"/>
					</g>
				</g>
				<g>
					<path fill="#F1F2F2" d="M1.8,26.1h14.2c0,0,0.1,0,0.1-0.1v-0.7H1.8V26.1z"/>
					<path fill="#F1F2F2" d="M1.8,5v0.8H16V5.1C16,5,16,5,15.9,5H1.8z"/>
				</g>
			</g>
			<g>
				<text transform="matrix(0 1 -1 0 18.5435 11.6794)" fill="#FFFFFF" font-family="'OCRA'" font-size="2.72px">HOST</text>
			</g>
		</g>
		<g>
			<g>
				<g>
					<g>
						<path fill="#D1D3D4" d="M15.9,47.5H1.8l-1.7-0.8c0,0,0,0,0,0c0,0,0,0,0,0c0,0,0,0,0,0c0,0,0,0,0,0c0,0,0,0,0,0c0,0,0,0,0,0
							l0.3,2v18.4L0,69.4c0,0,0,0,0,0c0,0,0,0,0,0c0,0,0,0,0,0c0,0,0,0,0,0c0,0,0,0,0,0c0,0,0,0,0,0l1.7-0.8h14.2c0,0,0.1,0,0.1-0.1
							L15.9,47.5C16,47.5,16,47.5,15.9,47.5z"/>
						<g>
							<rect x="0.5" y="48.7" fill="#B3B3B3" width="0.6" height="18.4"/>
							<rect x="0.3" y="48.7" fill="#F1F2F2" width="0.3" height="18.4"/>
						</g>
					</g>
					<g>
						<rect x="2.5" y="51.3" fill="#4D4D4D" width="5.7" height="1.8"/>
						<rect x="2.5" y="63" fill="#4D4D4D" width="5.7" height="1.8"/>
					</g>
					<g>
						<rect x="13.7" y="52" fill="#A7A9AC" width="2.3" height="2.3"/>
						<rect x="13.7" y="61.8" fill="#A7A9AC" width="2.3" height="2.3"/>
					</g>
					<g>
						<rect x="16" y="54.3" fill="#F1F2F2" width="2.3" height="0.9"/>
						<rect x="16" y="61" fill="#F1F2F2" width="2.3" height="0.9"/>
						<rect x="16" y="58.7" fill="#F1F2F2" width="2.3" height="0.9"/>
						<rect x="16" y="56.5" fill="#F1F2F2" width="2.3" height="0.9"/>
					</g>
				</g>
				<g>
					<path fill="#F1F2F2" d="M1.8,68.6h14.2c0,0,0.1,0,0.1-0.1v-0.7H1.8V68.6z"/>
					<path fill="#F1F2F2" d="M1.8,47.5v0.8H16v-0.7c0,0,0-0.1-0.1-0.1H1.8z"/>
				</g>
			</g>
			<g>
				<text transform="matrix(0 1 -1 0 18.5435 55.137)" fill="#FFFFFF" font-family="'OCRA'" font-size="2.72px">PWR</text>
			</g>
		</g>
		<g>
			<g>
				<text transform="matrix(0 1 -1 0 34.5894 12.6984)" fill="#FFFFFF" font-family="'OCRA'" font-size="2.72px">MPU</text>
			</g>
			<g>
				<g id="breadboard_3_">
					<g>
						<g>
							<g>
								<polygon fill="#A7A9AC" points="32.7,21.7 32.7,17.5 33.8,17.5 33.8,21.7 								"/>
								<polygon fill="#A7A9AC" points="25.3,13.8 25.3,9.5 26.4,9.5 26.4,13.8 								"/>
								<polygon fill="#A7A9AC" points="32.7,13.8 32.7,9.5 33.8,9.5 33.8,13.8 								"/>
								<polygon fill="#A7A9AC" points="25.3,21.7 25.3,17.5 26.4,17.5 26.4,21.7 								"/>
							</g>
							<g>
								<rect x="25" y="11.1" fill="#BCBEC0" width="9.1" height="9.1"/>
								<path fill="#D1D3D4" d="M33.3,20.2h-7.6c-0.4,0-0.7-0.3-0.7-0.7v-7.6c0-0.4,0.3-0.7,0.7-0.7h7.6c0.4,0,0.7,0.3,0.7,0.7v7.6
									C34.1,19.8,33.7,20.2,33.3,20.2z"/>
								<path fill="none" stroke="#939598" stroke-width="0.2" stroke-miterlimit="10" d="M33,19.4h-7c-0.1,0-0.2-0.1-0.2-0.2v-7
									c0-0.1,0.1-0.2,0.2-0.2h7c0.1,0,0.2,0.1,0.2,0.2v7C33.3,19.3,33.2,19.4,33,19.4z"/>
							</g>
							<g>
								<circle fill="#F9E0B2" cx="29.5" cy="15.6" r="2.6"/>
								<circle opacity="0.12" enable-background="new    " cx="29.5" cy="15.8" r="2.3"/>
								<circle fill="#FFEDCA" cx="29.5" cy="15.6" r="2.3"/>
								<path opacity="0.6" fill="#FFFFFF" enable-background="new    " d="M30.3,13.5c-0.2-0.1-0.4-0.1-0.6-0.1
									c-0.5-0.1-1,0.1-1.4,0.3l0,0.1c0.4-0.2,1-0.3,1.5-0.3C30.1,13.5,30.2,13.5,30.3,13.5L30.3,13.5z"/>
							</g>
						</g>
					</g>
				</g>
			</g>
		</g>
		<g>
			<g>
				<text transform="matrix(0 1 -1 0 34.5894 54.1382)" fill="#FFFFFF" font-family="'OCRA'" font-size="2.72px">WiFi</text>
			</g>
			<g>
				<g id="breadboard_2_">
					<g>
						<g>
							<g>
								<polygon fill="#A7A9AC" points="32.7,64.1 32.7,59.9 33.8,59.9 33.8,64.1 								"/>
								<polygon fill="#A7A9AC" points="25.3,56.2 25.3,51.9 26.4,51.9 26.4,56.2 								"/>
								<polygon fill="#A7A9AC" points="32.7,56.2 32.7,51.9 33.8,51.9 33.8,56.2 								"/>
								<polygon fill="#A7A9AC" points="25.3,64.1 25.3,59.9 26.4,59.9 26.4,64.1 								"/>
							</g>
							<g>
								<rect x="25" y="53.5" fill="#BCBEC0" width="9.1" height="9.1"/>
								<path fill="#D1D3D4" d="M33.3,62.6h-7.6c-0.4,0-0.7-0.3-0.7-0.7v-7.6c0-0.4,0.3-0.7,0.7-0.7h7.6c0.4,0,0.7,0.3,0.7,0.7v7.6
									C34.1,62.2,33.7,62.6,33.3,62.6z"/>
								<path fill="none" stroke="#939598" stroke-width="0.2" stroke-miterlimit="10" d="M33,61.8h-7c-0.1,0-0.2-0.1-0.2-0.2v-7
									c0-0.1,0.1-0.2,0.2-0.2h7c0.1,0,0.2,0.1,0.2,0.2v7C33.3,61.7,33.2,61.8,33,61.8z"/>
							</g>
							<g>
								<circle fill="#F9E0B2" cx="29.5" cy="58" r="2.6"/>
								<circle opacity="0.12" enable-background="new    " cx="29.5" cy="58.2" r="2.3"/>
								<circle fill="#FFEDCA" cx="29.5" cy="58" r="2.3"/>
								<path opacity="0.6" fill="#FFFFFF" enable-background="new    " d="M30.3,55.9c-0.2-0.1-0.4-0.1-0.6-0.1
									c-0.5-0.1-1,0.1-1.4,0.3l0,0.1c0.4-0.2,1-0.3,1.5-0.3C30.1,55.9,30.2,56,30.3,55.9L30.3,55.9z"/>
							</g>
						</g>
					</g>
				</g>
			</g>
		</g>
		<g transform="matrix(1, 0, 0, 1, 3.79616, 7.73856)">
			<g>
				<g transform="matrix(0.5, 0, 0, 0.5, 3.40384, 3.33071)">
					<g>
						<g>
							<g>
								<rect x="33.6" y="47.9" fill="#A7A9AC" width="2.2" height="6.5"/>
								<rect x="43.5" y="47.9" fill="#A7A9AC" width="2.2" height="6.5"/>
								<rect x="53.4" y="47.9" fill="#A7A9AC" width="2.2" height="6.5"/>
							</g>
							<g>
								<g>
									<rect x="33.7" y="29" fill="#A7A9AC" width="2.2" height="6.5"/>
									<rect x="43.6" y="29" fill="#A7A9AC" width="2.2" height="6.5"/>
									<rect x="53.5" y="29" fill="#A7A9AC" width="2.2" height="6.5"/>
								</g>
							</g>
						</g>
						<rect x="39.3" y="40.4" fill="#A7A9AC" width="10.8" height="10.8"/>
						<g>
							<rect x="31.7" y="34.1" fill="#303030" width="25.9" height="15.1"/>
							<polygon fill="#3D3D3D" points="31.7,34.1 57.6,34.1 56.2,35.5 33.1,35.5 							"/>
							<polygon points="31.7,49.2 57.6,49.2 56.2,47.8 33.1,47.8 							"/>
							<polygon fill="#3D3D3D" points="31.7,34.1 31.7,49.2 33.1,47.8 33.1,35.5 							"/>
							<polygon points="57.6,34.1 57.6,49.2 56.2,47.8 56.2,35.5 							"/>
							<circle fill="#1F1F1F" cx="44.7" cy="41.9" r="2.9"/>
						</g>
					</g>
				</g>
			</g>
		</g>
		<g>
			<g>
				<rect x="19.6" y="27.2" fill="#A7A9AC" width="1.1" height="2.5"/>
				<rect x="13.2" y="27.2" fill="#A7A9AC" width="1.1" height="2.5"/>
			</g>
			<rect x="16.4" y="34.2" fill="#A7A9AC" width="1.1" height="1.8"/>
			<g>
				<g>
					<rect x="12.8" y="29.8" fill="#303030" width="8.2" height="4.2"/>
					<polygon points="20.6,33.5 21.1,34 21.1,29.8 21.1,29.8 20.6,30.3 					"/>
					<polygon points="13.3,33.5 12.8,34 21.1,34 20.6,33.5 					"/>
					<polygon fill="#3D3D3D" points="13.3,33.5 12.8,34 12.8,29.8 12.8,29.8 13.3,30.3 					"/>
					<polygon fill="#3D3D3D" points="20.6,30.3 21.1,29.8 12.8,29.8 13.3,30.3 					"/>
				</g>
				<circle fill="#1F1F1F" cx="20.1" cy="30.8" r="0.2"/>
			</g>
		</g>
		<g>
			<g>
				<rect x="13.2" y="43.9" fill="#A7A9AC" width="1.1" height="2.5"/>
				<rect x="19.6" y="43.9" fill="#A7A9AC" width="1.1" height="2.5"/>
			</g>
			<rect x="16.4" y="37.6" fill="#A7A9AC" width="1.1" height="1.8"/>
			<g>
				<g>
					<rect x="12.8" y="39.6" fill="#303030" width="8.2" height="4.2"/>
					<polygon fill="#3D3D3D" points="13.3,40.1 12.8,39.6 12.8,43.7 12.8,43.7 13.3,43.2 					"/>
					<polygon fill="#3D3D3D" points="20.6,40.1 21.1,39.6 12.8,39.6 13.3,40.1 					"/>
					<polygon points="20.6,40.1 21.1,39.6 21.1,43.7 21.1,43.7 20.6,43.2 					"/>
					<polygon points="13.3,43.2 12.8,43.7 21.1,43.7 20.6,43.2 					"/>
				</g>
				<circle fill="#1F1F1F" cx="13.8" cy="42.7" r="0.2"/>
			</g>
		</g>
		<g>
			<g>
				<rect x="29.8" y="46.8" fill="#A7A9AC" width="2.5" height="1.1"/>
				<rect x="29.8" y="40.4" fill="#A7A9AC" width="2.5" height="1.1"/>
			</g>
			<rect x="23.4" y="43.6" fill="#A7A9AC" width="1.8" height="1.1"/>
			<g>
				<g>
					<rect x="25.4" y="40" fill="#303030" width="4.2" height="8.2"/>
					<polygon points="25.9,47.8 25.4,48.3 29.6,48.3 29.6,48.3 29.1,47.8 					"/>
					<polygon fill="#3D3D3D" points="25.9,40.5 25.4,40 25.4,48.3 25.9,47.8 					"/>
					<polygon fill="#3D3D3D" points="25.9,40.5 25.4,40 29.6,40 29.6,40 29.1,40.5 					"/>
					<polygon points="29.1,47.8 29.6,48.3 29.6,40 29.1,40.5 					"/>
				</g>
				<circle fill="#1F1F1F" cx="28.6" cy="47.3" r="0.2"/>
			</g>
		</g>
	</g>
</g>
</svg>
